<?xml version="1.0" standalone="no"?>
<!DOCTYPE svg PUBLIC "-//W3C//DTD SVG 20010904//EN"
 "http://www.w3.org/TR/2001/REC-SVG-20010904/DTD/svg10.dtd">
<svg version="1.0" xmlns="http://www.w3.org/2000/svg"
 width="1439.000000pt" height="363.000000pt" viewBox="0 0 1439.000000 363.000000"
 preserveAspectRatio="xMidYMid meet">
<metadata>
Created by potrace 1.16, written by Peter Selinger 2001-2019
</metadata>
<g transform="translate(0.000000,363.000000) scale(0.100000,-0.100000)"
fill="#000000" stroke="none">
<path d="M3107 3623 c7 -2 10 -10 7 -17 -3 -8 6 -26 20 -41 31 -34 32 -35 5
-28 -22 6 -22 6 2 -28 13 -19 28 -37 34 -41 5 -4 6 -10 2 -14 -3 -4 -13 -1
-22 6 -12 10 -15 10 -15 -4 0 -9 7 -16 15 -16 8 0 15 -5 15 -12 0 -6 3 -9 6
-5 3 3 17 -6 31 -21 20 -22 24 -23 18 -7 -5 15 -3 17 5 8 7 -6 12 -27 12 -47
l0 -36 17 22 c10 13 23 44 31 71 13 48 33 60 58 35 19 -19 14 3 -5 24 -9 10
-33 49 -53 86 l-36 67 -80 1 c-43 1 -74 0 -67 -3z"/>
<path d="M3287 3613 c4 -10 14 -24 22 -31 13 -11 13 -12 1 -6 -8 4 -3 -5 11
-19 15 -15 27 -39 27 -52 0 -14 7 -34 16 -44 13 -15 14 -20 4 -24 -9 -3 0 -17
25 -40 21 -20 36 -41 32 -47 -3 -5 0 -10 8 -10 8 0 17 -7 20 -14 4 -11 1 -13
-10 -9 -16 6 -16 7 0 -64 3 -12 18 -42 32 -67 20 -33 28 -64 32 -118 3 -40 9
-77 13 -82 9 -9 5 93 -6 184 -4 30 -6 67 -5 81 1 17 -4 29 -16 33 -14 6 -15 9
-3 16 12 7 11 12 -5 31 l-20 22 23 -12 c12 -6 23 -18 23 -26 3 -27 27 -87 28
-68 1 6 10 9 21 6 12 -3 20 0 20 7 0 10 3 10 15 0 8 -7 15 -17 15 -23 0 -8 -4
-7 -11 0 -9 9 -19 5 -40 -17 -33 -32 -33 -32 -18 -83 7 -25 15 -37 26 -35 11
2 17 -7 19 -37 3 -22 6 -46 9 -52 2 -7 -2 -13 -11 -13 -12 0 -12 -4 -4 -20 7
-13 7 -20 1 -20 -7 0 -7 -8 -1 -22 5 -13 14 -42 20 -65 6 -23 17 -49 25 -57 9
-8 14 -19 13 -23 -1 -4 4 -32 10 -61 15 -64 15 -82 2 -62 -8 12 -10 9 -10 -13
0 -20 7 -30 23 -36 18 -8 19 -10 6 -16 -29 -11 14 -105 79 -170 56 -56 86 -71
36 -19 -31 34 -54 83 -54 118 0 13 -6 27 -12 29 -8 4 -7 6 4 6 11 1 15 8 12
24 -2 12 -2 16 2 9 3 -6 10 -9 16 -6 5 3 25 3 44 -1 30 -5 33 -9 24 -21 -8 -9
-9 -14 -2 -14 14 0 57 -41 64 -61 5 -13 2 -16 -13 -12 -10 3 -19 9 -19 13 0 4
-7 11 -16 14 -11 4 -15 2 -11 -7 4 -10 -2 -13 -19 -9 -28 5 -41 -17 -26 -45
16 -28 142 -148 154 -145 5 1 7 -2 3 -8 -4 -6 -16 -8 -27 -4 -16 5 -19 3 -12
-7 10 -18 24 -35 48 -61 13 -14 16 -29 12 -50 -3 -18 -1 -37 5 -45 7 -7 8 -17
4 -21 -4 -4 -10 -1 -13 6 -3 9 -8 6 -16 -10 -7 -12 -18 -22 -24 -21 -6 2 -23
-20 -38 -47 -15 -28 -30 -50 -35 -50 -4 0 -9 -7 -13 -15 -7 -19 15 -15 31 5 9
10 15 12 20 4 13 -17 43 -25 43 -11 0 7 3 8 8 2 10 -14 48 -12 44 3 -1 7 2 12
8 12 5 0 10 -6 10 -13 0 -7 9 -13 21 -14 16 -2 18 1 9 12 -9 11 -5 13 22 10
18 -2 40 -4 48 -4 13 -1 13 -2 0 -11 -11 -7 -7 -10 18 -10 19 0 32 5 32 13 0
7 5 5 10 -5 6 -10 18 -14 30 -11 11 3 35 2 54 -1 27 -5 34 -10 29 -23 -5 -13
-2 -15 11 -10 10 4 20 7 23 7 3 0 0 7 -7 15 -10 12 -9 15 6 16 11 1 22 1 27 0
4 0 7 3 7 9 0 5 -5 10 -11 10 -7 0 -9 10 -7 25 3 14 1 25 -5 25 -7 0 -7 4 1
12 15 15 16 68 1 68 -6 0 -9 -7 -6 -15 4 -8 2 -17 -3 -20 -6 -4 -8 -19 -5 -36
3 -16 1 -29 -5 -29 -5 0 -10 10 -10 23 0 13 -11 34 -25 47 -19 18 -22 26 -13
32 10 6 9 8 -2 8 -13 0 -13 1 0 10 12 8 12 10 -5 11 -11 0 -15 3 -9 5 7 3 10
14 7 24 -3 12 0 20 7 20 7 0 10 -7 6 -15 -5 -14 38 -45 62 -45 12 0 -18 163
-32 172 -6 4 -7 8 -2 8 5 0 3 6 -3 14 -6 7 -10 24 -10 37 2 23 -34 138 -52
169 -7 13 -8 12 -9 -2 0 -10 -5 -18 -11 -18 -6 0 -4 -9 5 -22 11 -15 12 -25 5
-34 -6 -8 -5 -13 6 -18 17 -6 21 -36 4 -36 -6 0 -3 -7 5 -15 16 -16 32 -66 41
-126 4 -28 3 -26 -8 9 -7 24 -15 40 -19 36 -4 -3 -10 12 -14 34 -5 31 -11 42
-27 44 -13 2 -24 15 -31 35 -6 17 -14 35 -18 38 -9 9 -5 -16 5 -32 5 -8 4 -13
-2 -13 -6 0 -11 3 -11 8 0 4 -11 12 -24 18 -20 9 -26 9 -30 -3 -6 -15 -26 -9
-26 8 0 6 5 7 12 3 7 -5 9 -2 5 9 -3 9 -1 18 6 21 9 3 9 5 0 5 -6 1 -9 9 -6
20 3 10 -1 22 -8 27 -9 5 -10 2 -6 -10 5 -11 3 -16 -5 -14 -6 2 -12 14 -13 27
-1 13 -7 26 -14 31 -10 6 -10 9 -1 15 6 4 9 13 6 21 -7 18 26 35 45 23 7 -5
25 -9 39 -9 14 0 36 -12 49 -25 24 -26 41 -32 41 -15 0 6 -5 10 -11 10 -5 0
-8 4 -5 9 3 4 -12 27 -33 50 -21 23 -36 43 -32 44 3 1 22 2 41 2 31 -1 35 -4
32 -25 -1 -16 1 -20 6 -12 6 9 13 7 30 -8 11 -11 26 -20 31 -20 6 0 13 -16 17
-36 4 -24 9 -32 15 -23 15 24 20 3 28 -119 5 -66 11 -124 15 -130 5 -9 7 -182
3 -296 -1 -26 3 -41 12 -44 10 -3 13 2 9 22 -7 37 12 49 48 30 95 -51 145 -79
194 -109 30 -19 74 -44 98 -56 23 -12 45 -25 48 -30 7 -12 24 -11 24 1 0 6 -7
10 -15 10 -8 0 -15 5 -15 10 0 6 -6 10 -14 10 -8 0 -21 6 -28 13 -15 14 -128
90 -143 96 -5 2 -47 29 -93 58 -67 44 -86 52 -98 43 -19 -17 -18 0 2 29 13 18
14 25 4 31 -9 5 -10 17 -5 36 8 27 9 27 13 6 5 -31 38 -50 117 -67 37 -7 69
-16 72 -19 3 -3 14 -1 24 4 12 7 20 7 24 0 3 -5 18 -10 33 -10 37 0 17 14 -53
35 -106 32 -103 30 -75 45 32 17 69 21 90 10 39 -21 154 -59 136 -45 -23 17
-14 20 15 4 11 -5 16 -15 13 -21 -4 -6 -3 -8 4 -5 14 9 43 -3 36 -14 -3 -5 3
-9 13 -9 10 0 26 -7 36 -14 18 -14 18 -15 0 -25 -23 -13 -8 -14 17 -1 14 8 24
6 37 -4 36 -30 154 -116 159 -116 7 0 74 -49 107 -79 l27 -25 -1 25 c0 13 -3
19 -5 12 -3 -6 -23 6 -48 30 -45 44 -190 147 -206 147 -6 0 -10 5 -10 10 0 19
26 10 60 -20 18 -16 41 -30 51 -30 9 0 22 -7 29 -15 7 -8 18 -15 24 -14 7 0 6
2 -2 6 -6 2 -9 10 -6 15 4 6 2 8 -3 5 -6 -4 -14 0 -17 9 -3 8 -10 12 -16 9 -5
-3 -10 -1 -10 4 0 6 -6 11 -14 11 -8 0 -33 12 -56 28 -23 15 -46 27 -51 27 -6
0 -13 5 -17 12 -4 6 -18 13 -32 16 -14 2 -20 2 -13 0 12 -4 26 -33 16 -33 -14
0 -41 33 -37 44 3 7 -17 22 -47 37 -29 13 -46 25 -37 27 13 3 82 -25 118 -47
8 -5 33 -17 55 -26 22 -10 47 -23 55 -31 8 -7 20 -14 25 -16 6 -2 9 -6 7 -10
-1 -5 9 -8 23 -8 14 0 28 -6 31 -14 3 -8 15 -16 26 -19 13 -4 17 -10 12 -18
-4 -7 -3 -10 3 -6 12 8 78 -17 87 -32 4 -5 -2 -12 -11 -14 -14 -4 -13 -5 5 -6
12 0 22 -6 22 -11 0 -6 -11 -8 -26 -4 -24 6 -25 5 -12 -15 7 -11 21 -21 31
-21 10 0 16 -4 13 -9 -3 -5 1 -11 9 -15 18 -7 19 4 3 39 -16 35 -5 41 26 14
15 -13 33 -24 41 -25 15 -2 76 -42 86 -57 3 -5 9 -8 13 -8 3 1 5 0 4 -1 -1 -2
13 -19 30 -38 36 -39 41 -56 13 -40 -18 9 -19 8 -11 -20 5 -17 6 -30 3 -30 -4
0 3 -10 14 -22 37 -41 37 -53 1 -23 -69 59 -79 66 -87 61 -4 -3 -18 6 -31 19
-13 13 -27 22 -33 18 -6 -3 -7 -1 -4 4 4 6 0 16 -8 23 -8 7 -15 9 -15 4 0 -5
-10 6 -21 24 -23 35 -39 42 -34 15 1 -10 0 -12 -2 -5 -3 7 -8 10 -13 7 -11 -7
-81 32 -205 114 -110 73 -218 126 -241 117 -8 -3 -14 0 -14 7 0 8 -4 6 -10 -3
-9 -15 -11 -13 -14 13 -1 14 -56 23 -56 9 0 -6 -14 -7 -34 -2 -19 4 -40 4 -47
0 -8 -6 -5 -10 12 -13 22 -4 22 -4 -4 -6 -16 0 -37 4 -47 9 -16 9 -18 8 -13
-6 5 -14 3 -15 -15 -5 -27 14 -28 7 -3 -18 13 -13 22 -16 29 -9 8 8 20 3 42
-16 18 -14 36 -24 41 -20 5 3 9 -4 9 -15 0 -11 5 -23 10 -26 6 -3 10 0 10 8 0
9 11 13 36 10 42 -3 54 -11 35 -22 -10 -6 -9 -10 4 -15 22 -8 25 -8 25 5 0 5
-5 7 -12 3 -7 -4 -8 -3 -4 5 6 9 11 9 22 0 12 -10 13 -9 8 6 -6 15 -3 16 17
10 13 -4 27 -13 31 -19 5 -8 8 -7 8 2 0 7 4 11 8 8 4 -2 14 -1 22 4 9 6 18 3
27 -10 8 -11 20 -17 27 -14 7 3 16 -2 19 -10 4 -9 11 -16 16 -16 6 0 8 7 4 16
-5 14 -3 13 15 -2 23 -19 30 -40 10 -28 -7 4 -8 3 -4 -5 4 -6 16 -9 26 -6 10
3 21 1 25 -4 7 -12 -39 -26 -54 -16 -6 3 -11 1 -11 -4 0 -10 5 -12 25 -11 11
1 67 -32 62 -36 -3 -3 -21 2 -42 10 -26 11 -35 12 -32 3 2 -6 13 -13 26 -15
24 -4 25 -30 1 -49 -8 -7 -11 -13 -6 -13 5 0 18 8 29 18 19 16 20 16 14 0 -7
-21 20 -51 39 -44 8 3 14 -1 14 -9 0 -8 5 -15 11 -15 6 0 16 -6 23 -12 8 -7
23 -19 34 -27 16 -11 19 -18 10 -28 -5 -7 -15 -10 -21 -6 -5 3 -7 1 -4 -5 4
-5 15 -8 25 -5 13 3 34 -13 71 -56 31 -35 58 -58 66 -55 8 3 46 -26 91 -70 42
-42 81 -76 87 -76 5 0 7 -7 3 -15 -3 -9 0 -15 10 -15 8 0 42 -29 76 -65 34
-35 66 -61 72 -58 6 3 8 3 4 -2 -8 -9 15 -35 32 -35 6 0 9 -4 6 -9 -5 -8 21
-21 54 -26 8 -1 44 -10 79 -19 35 -9 66 -14 69 -11 3 3 -8 20 -24 37 -16 18
-20 26 -9 18 11 -8 22 -18 25 -21 3 -3 29 -20 57 -36 29 -16 50 -33 46 -36
-10 -11 1 -8 41 8 20 9 34 19 31 24 -5 10 25 25 33 16 3 -3 3 -6 1 -8 -2 -1
-21 -17 -41 -34 -36 -31 -37 -33 -18 -46 11 -8 17 -17 13 -20 -3 -4 3 -7 15
-7 11 0 28 -3 38 -7 11 -4 15 -3 11 4 -10 16 62 41 101 36 17 -3 32 -10 32
-15 0 -5 -4 -7 -9 -3 -5 3 -12 1 -16 -5 -3 -5 1 -10 9 -10 9 0 16 -4 16 -9 0
-8 37 -24 52 -22 4 0 22 -6 42 -14 27 -11 36 -12 39 -2 4 8 8 9 14 2 4 -6 16
-11 26 -12 9 0 25 -1 35 -2 28 -2 43 -65 26 -113 -7 -21 -10 -38 -7 -38 4 0
-1 -6 -11 -13 -17 -13 -13 -47 6 -47 5 0 6 5 2 11 -5 8 3 10 25 7 34 -5 65 17
43 31 -8 5 -7 17 5 44 10 20 21 37 26 37 4 0 6 4 2 9 -3 5 -1 13 5 16 8 5 10
-10 8 -44 -2 -40 -6 -50 -18 -46 -8 4 -11 3 -8 0 4 -4 3 -17 -2 -29 -6 -17 -4
-22 11 -24 35 -3 44 -3 90 4 50 7 61 0 48 -31 -8 -19 -8 -19 -15 3 -5 18 -12
22 -28 18 -11 -3 -24 -6 -28 -6 -5 0 -8 -7 -8 -15 0 -8 6 -12 14 -9 8 3 17 1
21 -5 6 -10 -8 -16 -29 -12 -5 1 -13 -4 -18 -11 -6 -9 -7 -6 -3 9 6 21 4 22
-25 12 -17 -6 -34 -8 -38 -4 -4 4 -1 10 6 12 6 3 12 9 12 14 0 5 -9 4 -19 -3
-11 -7 -17 -17 -14 -23 3 -5 0 -5 -7 2 -9 8 -19 9 -31 2 -15 -8 -17 -6 -12 8
6 16 5 16 -10 5 -15 -13 -13 -47 3 -37 4 2 5 -7 2 -21 -4 -24 -5 -24 -23 -8
-11 10 -19 12 -19 6 0 -7 4 -12 9 -12 6 0 6 -12 -1 -30 -8 -24 -13 -28 -23
-20 -10 8 -15 8 -20 0 -4 -6 -5 -13 -3 -15 6 -6 165 -8 175 -2 5 4 23 4 39 1
32 -6 50 -18 19 -13 -11 2 -29 -2 -40 -7 -29 -15 -99 -19 -91 -5 4 6 3 11 -3
11 -5 0 -12 -6 -14 -12 -4 -10 -6 -9 -6 1 -1 11 -4 11 -18 0 -11 -10 -14 -10
-9 -1 4 6 4 12 -1 12 -14 -1 -52 -34 -55 -50 -5 -22 -26 -41 -48 -43 -11 -1
-20 -8 -21 -17 0 -10 -2 -11 -6 -2 -6 16 -35 16 -51 0 -10 -10 -15 -10 -21 1
-5 8 -11 9 -15 3 -3 -6 0 -13 6 -15 10 -4 9 -8 -2 -17 -11 -9 -12 -13 -2 -17
6 -2 9 -9 6 -15 -3 -5 0 -9 7 -7 31 4 40 -2 37 -24 -3 -20 -24 -46 -39 -47 -3
0 -20 14 -37 30 -35 33 -66 42 -37 10 10 -11 15 -23 12 -27 -4 -3 -7 -1 -7 5
0 7 -8 12 -18 12 -11 0 -35 16 -56 36 -20 19 -40 33 -45 29 -6 -3 -11 11 -13
31 -3 34 -7 39 -43 50 -38 13 -38 13 -7 10 31 -2 32 -2 12 16 -10 10 -25 18
-33 18 -8 0 -22 9 -32 20 -19 21 -40 17 -31 -6 3 -8 -1 -14 -10 -14 -8 0 -23
-7 -32 -16 -15 -15 -14 -16 6 -10 13 4 22 3 22 -3 0 -6 7 -8 15 -5 8 4 15 1
15 -4 0 -6 -12 -9 -26 -6 -17 3 -23 1 -19 -7 6 -8 2 -8 -13 0 -22 12 -55 5
-47 -9 3 -5 1 -11 -5 -15 -5 -3 -10 0 -10 7 0 9 -13 13 -37 13 -40 0 -52 -15
-28 -35 12 -10 18 -10 30 0 20 16 19 6 0 -14 -16 -15 -45 -12 -45 6 0 15 -24
35 -38 30 -6 -2 -12 3 -12 12 0 9 -8 16 -17 16 -15 0 -16 -2 -3 -10 13 -8 12
-10 -2 -10 -22 0 -23 -12 -3 -50 8 -16 14 -35 13 -42 -2 -7 7 -14 20 -16 24
-4 28 -12 11 -29 -7 -7 -6 -15 5 -25 8 -9 12 -18 9 -22 -4 -3 -3 -6 1 -6 17 0
34 27 25 41 -8 12 -11 12 -20 -1 -8 -12 -10 -12 -7 5 2 12 12 21 25 23 17 3
20 -1 16 -17 -3 -13 -1 -21 7 -21 10 0 10 -3 1 -14 -16 -19 -4 -24 39 -19 56
7 342 6 375 -1 23 -5 26 -4 15 4 -11 8 -2 10 35 5 77 -9 215 -11 202 -3 -7 4
-2 6 10 5 12 0 19 -5 16 -11 -4 -5 -1 -6 8 0 8 5 70 9 139 9 101 0 126 -3 132
-15 5 -13 7 -12 7 2 1 23 43 19 49 -4 4 -18 5 -18 18 -1 13 17 14 17 7 -2 -5
-16 -4 -18 8 -9 8 6 22 10 32 8 14 -2 17 2 13 14 -5 13 -2 12 9 -2 11 -14 15
-16 15 -5 0 12 2 12 10 -1 9 -13 10 -13 10 0 0 9 3 11 8 5 9 -14 38 -12 35 2
-2 10 65 7 77 -4 6 -6 -23 -23 -31 -17 -4 2 -11 0 -14 -6 -5 -8 -12 -7 -23 2
-13 11 -14 11 -7 -1 6 -10 4 -12 -5 -6 -8 5 -11 4 -7 -2 4 -6 -13 -9 -43 -8
-33 1 -47 -2 -43 -9 4 -6 -2 -4 -12 4 -17 13 -18 13 -10 0 8 -13 7 -13 -10 0
-17 13 -18 13 -10 0 8 -13 7 -13 -10 0 -17 13 -18 13 -10 0 5 -9 5 -12 -1 -7
-9 9 -10 11 -13 45 -2 15 -3 14 -11 -3 -6 -13 -9 -15 -9 -5 -1 10 -6 7 -17 -8
-13 -18 -19 -21 -30 -11 -9 7 -18 8 -26 2 -15 -12 -134 -8 -151 4 -7 5 -25 6
-42 2 -16 -3 -27 -8 -22 -9 19 -6 33 -5 45 4 9 7 12 5 10 -5 -2 -10 11 -14 52
-15 30 -1 55 -3 55 -4 0 -1 12 -3 28 -4 43 -4 42 -13 -2 -12 -22 0 -38 4 -36
7 2 3 -2 6 -10 6 -8 0 -12 -4 -10 -8 3 -4 -3 -5 -14 -2 -10 3 -22 0 -25 -6 -9
-14 -66 -15 -66 -1 0 5 3 9 8 7 4 -1 8 3 10 8 1 6 -6 10 -15 10 -12 0 -17 -7
-16 -20 1 -11 0 -14 -3 -7 -3 6 -11 9 -17 5 -7 -4 -7 0 1 10 12 14 11 16 -7
14 -11 0 -17 -5 -14 -10 3 -5 -1 -13 -8 -18 -15 -9 -11 -10 86 -14 28 -2 55 0
60 4 6 4 42 7 80 6 39 -1 76 3 83 8 8 7 12 4 13 -9 0 -18 1 -18 9 1 7 17 9 17
9 3 1 -21 38 -19 52 3 7 12 9 12 9 -1 0 -13 1 -13 10 0 9 13 10 13 10 0 0 -13
1 -13 10 0 8 12 10 12 11 -5 l0 -20 9 20 c7 17 9 17 9 3 1 -21 38 -19 51 1 5
10 9 10 14 2 4 -6 13 -8 19 -4 18 11 51 10 59 -2 5 -6 8 -4 8 5 0 13 1 13 10
0 9 -13 10 -13 10 0 0 13 1 13 10 0 9 -13 10 -13 10 0 0 13 1 13 10 0 7 -11
10 -11 10 -2 0 7 5 10 10 7 6 -4 8 -10 6 -14 -3 -4 5 -8 17 -8 17 -2 19 0 7 7
-8 5 -12 10 -7 11 31 6 54 2 63 -10 8 -10 13 -11 18 -2 4 6 3 18 -3 25 -6 7
-7 17 -3 22 4 4 -1 2 -10 -5 -10 -7 -18 -10 -18 -6 0 4 -6 2 -13 -4 -11 -9
-14 -4 -13 24 1 30 16 65 16 37 0 -6 11 -8 28 -5 35 8 207 7 247 -1 23 -5 26
-4 15 4 -11 8 -6 10 25 9 22 -2 48 -7 59 -12 10 -5 16 -5 13 0 -3 5 4 10 16
10 16 2 18 0 8 -6 -25 -16 22 -18 53 -2 22 11 33 11 47 2 10 -6 22 -11 26 -11
5 0 2 4 -4 8 -7 4 10 8 37 7 36 0 49 -4 45 -12 -17 -43 -18 -46 -7 -39 6 3 13
2 17 -4 3 -6 -2 -13 -11 -17 -10 -4 -19 -2 -22 5 -4 13 -42 -2 -42 -17 0 -12
39 -21 45 -11 7 11 55 19 60 9 3 -4 -7 -10 -22 -12 -26 -4 -27 -4 -3 -5 33 -2
64 22 56 43 -5 14 -8 14 -33 -2 -17 -12 -24 -13 -19 -4 5 8 4 16 -4 21 -7 4
-9 16 -6 26 5 18 17 19 134 19 70 -1 134 -5 141 -9 9 -6 12 -5 8 0 -3 6 11 11
31 12 20 1 33 -1 27 -5 -5 -5 -18 -18 -29 -30 -18 -21 -18 -22 2 -20 11 0 18
5 15 11 -3 5 -1 6 6 2 14 -9 9 -30 -7 -32 -7 -1 -17 -2 -23 -3 -5 0 -8 -5 -5
-10 4 -5 12 -8 20 -7 19 3 47 27 41 35 -2 4 2 8 10 8 8 0 13 -3 10 -5 -3 -3 0
-11 5 -17 8 -9 5 -12 -7 -11 -10 0 -19 -3 -21 -9 -3 -13 49 -15 65 -2 7 5 10
14 6 21 -3 6 -3 8 2 4 4 -4 14 -3 22 3 7 6 13 8 13 4 0 -4 8 -1 17 6 11 10 14
10 9 2 -4 -7 -3 -13 2 -13 18 0 22 30 4 30 -13 1 -12 3 6 13 12 7 20 15 18 18
-3 3 5 6 17 6 17 2 19 0 7 -8 -11 -7 -8 -8 12 -5 15 3 32 7 37 10 5 4 12 -2
14 -11 4 -16 5 -16 6 -1 1 13 9 16 40 13 22 -2 44 -6 50 -10 6 -3 11 -1 11 5
0 13 52 9 62 -5 5 -6 17 -6 35 1 29 11 64 11 118 0 23 -5 27 -4 15 4 -11 8 -2
10 35 5 71 -8 215 -11 204 -4 -5 3 26 5 70 4 44 -1 84 1 89 4 5 3 12 39 15 78
3 42 1 71 -4 67 -5 -3 -9 -15 -9 -27 -1 -20 -2 -21 -14 -5 -12 16 -14 16 -29
-3 -9 -10 -17 -24 -17 -30 0 -6 -7 -3 -16 5 -8 9 -12 21 -8 27 4 8 3 9 -4 5
-7 -4 -12 -3 -12 2 0 5 9 12 20 15 13 3 18 10 14 21 -3 9 -11 13 -18 9 -6 -3
-4 2 5 13 19 23 19 49 0 49 -22 0 -25 -23 -4 -28 14 -4 13 -5 -4 -6 -13 0 -23
5 -23 12 0 8 -3 8 -9 -2 -5 -8 -24 -14 -43 -14 -18 0 -40 -5 -48 -12 -8 -6
-22 -15 -30 -19 -8 -4 -7 -1 4 8 10 8 16 21 13 28 -4 10 -6 10 -6 1 -1 -7 -14
-13 -30 -13 -18 0 -31 -6 -35 -16 -4 -9 -9 -14 -13 -10 -3 3 -18 -1 -31 -10
l-25 -17 21 31 c28 38 28 45 0 38 -13 -3 -8 1 10 9 30 14 31 17 18 31 -9 8
-25 16 -36 17 -11 1 -20 7 -20 14 0 18 18 16 37 -2 10 -11 19 -13 27 -6 6 6
25 12 41 15 47 8 269 11 280 4 16 -10 39 8 32 25 -3 9 -2 17 3 19 5 2 19 37
30 78 32 115 34 131 19 141 -16 9 -8 19 18 23 20 3 71 97 72 133 1 12 5 23 11
25 5 2 11 19 13 38 2 19 8 47 14 61 27 63 42 129 30 129 -7 0 -3 7 7 15 10 8
22 31 25 52 5 28 11 38 25 38 13 0 30 20 54 65 35 64 62 100 62 81 0 -5 -4
-12 -8 -15 -5 -3 -10 -30 -11 -61 -2 -59 12 -72 31 -30 6 14 15 25 20 25 4 0
8 8 8 18 0 9 11 35 25 57 53 87 82 153 74 167 -13 20 -11 28 6 22 10 -4 21 9
37 43 20 42 52 83 65 83 3 0 11 -7 19 -15 9 -8 11 -15 6 -15 -12 0 -25 -38
-22 -69 1 -15 -2 -21 -9 -16 -11 6 -41 -17 -41 -32 0 -4 22 -27 49 -50 49 -42
83 -54 97 -32 3 6 19 9 34 6 20 -5 36 2 64 25 22 18 35 36 32 44 -3 8 1 14 9
14 8 0 15 4 15 9 0 4 20 39 45 75 25 37 45 78 45 90 0 12 6 28 12 34 7 7 13
20 13 29 0 9 5 18 11 20 7 2 11 -9 11 -32 -1 -19 -5 -35 -9 -35 -4 0 -8 -9 -8
-20 0 -11 -5 -20 -10 -20 -6 0 -9 -3 -9 -7 4 -21 -15 -74 -32 -89 -11 -9 -19
-23 -19 -29 0 -21 -23 -59 -75 -124 -36 -44 -55 -60 -68 -57 -17 4 -58 -25
-56 -40 0 -3 -3 -9 -7 -12 -4 -4 -4 -2 0 5 10 18 -11 25 -27 8 -20 -20 -56
-19 -79 2 -11 9 -18 11 -18 5 0 -7 4 -12 9 -12 9 0 25 -56 22 -77 -1 -8 5 -10
14 -7 16 6 19 -4 9 -30 -8 -22 -34 -8 -34 20 0 29 -34 66 -53 58 -8 -3 -19 1
-25 9 -10 12 -8 14 13 12 16 -2 25 2 25 10 0 10 -8 12 -27 8 -16 -3 -35 -6
-43 -7 -16 -1 -30 -15 -30 -30 0 -4 9 -6 20 -3 11 3 18 1 14 -4 -3 -5 -13 -9
-22 -9 -9 0 -39 -25 -67 -56 -27 -31 -62 -69 -77 -86 -16 -17 -28 -42 -28 -54
0 -15 -6 -24 -15 -24 -9 0 -18 -7 -21 -15 -9 -23 -23 -18 -18 8 4 20 4 20 -6
-2 -6 -14 -16 -32 -23 -40 -10 -12 -9 -13 3 -7 13 7 13 6 0 -6 -41 -36 -69
-128 -39 -128 5 0 7 -4 4 -10 -3 -5 10 -16 30 -24 19 -8 35 -20 35 -27 0 -7 9
-9 24 -5 12 3 26 3 29 0 10 -10 -12 -44 -28 -44 -18 0 -19 -12 -3 -28 9 -9 9
-12 -1 -12 -12 0 -12 -9 -1 -77 0 -2 4 -3 8 -3 5 0 16 19 26 41 15 34 16 43 5
50 -11 7 -10 9 4 9 9 0 17 5 17 10 0 6 -5 10 -11 10 -5 0 1 11 15 24 15 13 26
30 26 39 0 13 5 11 25 -7 14 -13 25 -28 25 -35 0 -6 4 -11 9 -11 5 0 7 9 4 20
-4 15 0 20 15 20 18 0 19 -4 11 -37 -5 -21 -9 -42 -9 -46 0 -5 -6 -5 -12 -1
-7 4 -10 4 -6 -1 4 -4 2 -15 -5 -23 -8 -11 -8 -14 0 -9 6 4 14 3 18 -3 3 -5 2
-10 -3 -10 -18 0 -21 -40 -3 -53 31 -22 34 -37 12 -56 -22 -20 -46 -104 -30
-109 5 -2 7 -8 4 -12 -10 -15 12 -20 25 -5 6 7 17 12 25 9 8 -3 24 14 42 45
15 28 31 51 36 51 13 0 7 28 -8 34 -28 10 -16 28 18 25 18 -2 37 -1 42 2 6 4
40 5 77 4 73 -2 94 5 85 28 -3 8 0 20 6 27 9 9 9 14 1 17 -7 2 -10 12 -7 22 3
11 -3 30 -12 45 -20 30 -13 46 19 46 12 0 23 6 23 13 0 6 3 29 7 49 4 21 3 38
-2 38 -7 0 -8 59 0 63 1 1 14 11 27 22 l24 20 -11 -21 c-6 -12 -19 -24 -28
-28 -12 -5 -14 -9 -5 -20 6 -7 8 -15 5 -19 -3 -3 13 -1 35 5 35 9 41 14 35 30
-5 17 -2 19 14 13 16 -4 21 -2 21 12 0 25 6 51 14 59 13 14 7 33 -9 27 -12 -4
-14 0 -8 23 4 16 12 35 18 43 9 12 8 13 -7 8 -15 -5 -14 -2 5 23 12 16 30 32
40 36 10 3 16 10 13 15 -4 5 -3 14 1 21 11 18 11 58 0 58 -5 0 -15 8 -22 18
-13 16 -15 16 -29 -3 -9 -11 -22 -28 -30 -37 -9 -11 -10 -18 -3 -20 7 -3 8
-10 4 -17 -6 -9 -11 -8 -20 4 -10 14 -14 14 -36 -7 -19 -18 -23 -19 -17 -4 4
10 10 29 13 42 6 23 24 34 24 14 0 -5 5 -10 11 -10 5 0 7 4 4 10 -3 5 0 7 8 4
11 -4 13 1 10 21 -4 20 -8 23 -19 14 -19 -16 -17 -5 7 43 12 23 24 36 27 31 4
-7 18 3 32 23 14 18 31 34 38 34 7 0 15 7 18 15 4 8 10 15 15 15 5 0 2 -12 -8
-27 -14 -23 -15 -26 -2 -16 9 7 20 9 24 5 5 -4 5 -1 1 5 -4 7 -3 13 2 13 5 0
12 9 15 19 3 13 0 18 -8 15 -7 -3 -16 -1 -19 4 -3 6 13 20 37 31 23 12 32 20
20 18 -16 -4 -21 0 -20 14 1 15 9 19 35 19 21 0 31 4 26 11 -6 11 23 77 41 92
6 6 6 10 -2 14 -21 8 -14 25 7 18 17 -5 20 -2 21 22 1 47 9 86 24 126 8 20 15
39 15 42 0 3 0 6 1 8 0 1 2 18 4 37 10 95 23 154 38 165 13 9 14 14 4 24 -9
10 -9 11 3 6 12 -4 19 6 28 41 8 30 9 50 3 53 -5 4 -4 14 4 25 8 10 18 15 23
12 6 -3 12 1 16 9 3 8 0 15 -7 15 -13 0 -14 43 -5 192 2 33 -1 60 -7 62 -5 3
-2 5 8 5 9 1 17 -4 17 -11 0 -6 3 -8 8 -4 8 9 12 42 11 104 0 24 5 58 10 75 6
18 12 48 15 67 7 55 18 94 30 102 8 5 7 8 -1 8 -15 0 -16 44 -3 75 l9 20 1
-20 c1 -11 4 -14 7 -7 3 7 22 12 46 12 31 0 38 3 27 10 -9 6 -10 10 -3 10 6 0
18 -7 26 -15 13 -12 16 -9 27 30 13 47 8 67 -15 58 -11 -4 -13 -1 -9 11 5 12
10 13 25 5 14 -7 19 -6 20 3 0 7 2 23 3 36 2 13 -3 22 -11 22 -28 0 -44 27
-33 55 l10 27 20 -24 c20 -23 20 -23 35 -4 15 20 15 20 16 0 0 -10 3 -13 6 -6
2 6 9 12 14 12 4 0 6 -7 3 -15 -4 -8 -2 -15 4 -15 5 0 1 -25 -11 -55 -11 -30
-25 -55 -32 -55 -7 0 -16 -7 -19 -16 -3 -8 -2 -12 4 -9 16 10 12 -7 -7 -28
-13 -15 -15 -21 -5 -24 6 -3 12 -12 12 -21 0 -14 -2 -14 -9 -3 -9 14 -10 10
-43 -129 -6 -25 -11 -53 -11 -62 -1 -10 -5 -18 -9 -18 -4 0 -8 -8 -8 -19 0
-10 -7 -31 -15 -47 -11 -22 -12 -30 -2 -36 7 -5 8 -8 1 -8 -12 0 -48 -145 -39
-160 3 -5 3 -16 -2 -22 -13 -20 -34 -80 -39 -113 -3 -16 -16 -68 -29 -115 -34
-123 -39 -143 -40 -160 0 -8 -4 -28 -8 -45 -29 -118 -37 -168 -31 -189 4 -17
3 -18 -5 -6 -9 12 -11 10 -11 -12 0 -15 -4 -30 -10 -33 -15 -9 -12 -25 5 -25
8 0 15 -4 15 -10 0 -5 -3 -10 -8 -10 -4 0 -13 -9 -20 -21 -8 -12 -9 -18 -3
-14 18 10 12 -7 -6 -20 -15 -11 -15 -15 -4 -29 12 -14 11 -16 -5 -17 -11 0
-13 -3 -7 -6 10 -3 10 -10 1 -26 -6 -12 -11 -23 -10 -24 1 -2 -1 -3 -4 -2 -8
1 -24 -22 -24 -34 0 -4 3 -6 8 -6 19 3 23 -2 12 -16 -7 -8 -15 -13 -19 -10 -8
4 -48 -98 -40 -103 2 -2 -4 -8 -13 -13 -10 -6 -18 -18 -18 -27 0 -10 -9 -35
-20 -57 -11 -22 -20 -47 -20 -57 0 -9 -4 -19 -9 -22 -5 -4 -17 -32 -26 -64
-26 -89 -36 -110 -51 -116 -11 -4 -13 1 -8 22 3 15 8 34 11 42 3 8 7 20 9 25
1 6 16 45 33 88 17 43 31 85 31 93 0 8 5 14 11 14 7 0 9 11 6 26 -3 17 2 33
14 45 25 25 15 53 -13 38 -17 -9 -18 -13 -7 -20 11 -7 9 -12 -10 -25 -18 -13
-20 -18 -10 -25 11 -7 10 -9 -3 -9 -20 0 -42 -35 -34 -55 2 -7 -1 -19 -9 -25
-8 -6 -11 -18 -8 -26 3 -8 -2 -17 -12 -20 -13 -5 -14 -9 -3 -15 10 -6 10 -11
1 -20 -8 -8 -9 -18 -2 -31 7 -13 6 -18 -2 -18 -7 0 -10 -3 -6 -6 3 -4 -3 -24
-13 -44 -12 -24 -16 -40 -9 -42 7 -2 5 -16 -7 -40 -11 -23 -14 -43 -9 -55 8
-16 9 -16 12 5 3 12 11 22 19 22 18 0 18 -14 -1 -30 -8 -7 -15 -19 -15 -26 0
-8 -4 -14 -10 -14 -5 0 -7 7 -4 15 4 8 1 15 -5 15 -6 0 -11 -11 -11 -25 0 -16
6 -25 16 -25 8 0 12 -4 9 -10 -3 -5 -8 -19 -10 -31 -2 -12 -12 -27 -22 -35
-10 -8 -13 -14 -6 -14 7 0 10 -6 7 -14 -7 -19 12 -29 28 -14 7 7 22 15 32 16
17 3 18 1 7 -11 -7 -9 -11 -21 -10 -29 2 -7 -3 -23 -10 -36 -15 -28 -45 -124
-43 -135 1 -4 -2 -16 -7 -26 -6 -10 -12 -29 -15 -42 -8 -43 -11 -54 -18 -59
-3 -3 -8 -14 -10 -25 -2 -15 3 -21 22 -23 19 -2 22 -1 10 7 -12 8 -11 10 7 8
20 -1 20 -3 9 -32 -9 -21 -20 -31 -39 -33 -28 -3 -36 -17 -14 -25 6 -2 -2 -11
-20 -20 -39 -21 -47 -21 -39 -2 3 8 0 14 -7 12 -7 -1 -15 -9 -18 -17 -3 -8
-12 -15 -19 -15 -7 0 -15 -6 -18 -14 -3 -8 0 -11 6 -7 13 8 11 -47 -3 -56 -5
-4 -13 0 -17 10 -6 16 -7 16 -7 0 -1 -10 -5 -18 -10 -18 -14 0 -20 38 -7 44 7
3 6 8 -4 15 -21 14 -28 6 -24 -30 2 -17 0 -38 -6 -48 -8 -13 -10 -10 -11 14
-1 17 -1 35 0 41 1 6 -6 11 -14 11 -8 0 -15 -9 -15 -19 0 -10 -5 -18 -11 -18
-5 0 -7 6 -4 13 4 6 0 4 -8 -6 -8 -10 -19 -17 -23 -16 -13 3 -82 -29 -89 -41
-4 -6 -11 -8 -16 -5 -5 3 -6 -2 -2 -11 5 -13 3 -15 -8 -9 -8 5 -11 4 -6 -1 4
-4 67 -9 140 -10 73 -1 146 -5 162 -8 23 -5 27 -4 15 4 -11 8 -2 10 35 5 28
-3 95 -6 150 -5 323 2 413 1 440 -4 23 -5 26 -4 15 4 -11 8 -2 10 35 5 28 -3
95 -6 150 -5 323 2 413 1 440 -4 23 -5 26 -4 15 4 -11 8 -2 10 35 5 28 -3 65
-7 82 -9 18 -2 30 0 27 5 -3 5 -1 9 5 9 9 0 30 71 34 115 1 11 7 23 12 28 6 4
4 11 -5 17 -18 12 -35 8 -36 -8 -1 -7 -3 -15 -4 -19 -1 -5 -2 -11 -1 -15 0 -5
-2 -8 -6 -9 -5 0 -16 -2 -26 -4 -9 -2 -15 1 -11 6 3 5 -1 9 -8 9 -10 0 -10 2
1 9 8 5 10 14 6 21 -5 7 -4 11 1 7 5 -3 18 1 29 10 14 10 15 14 5 13 -8 -1
-33 -2 -55 -1 -33 1 -41 5 -42 21 -1 11 3 20 9 20 6 0 9 2 6 5 -3 3 -17 0 -32
-6 -17 -8 -28 -23 -32 -46 -4 -19 -12 -33 -20 -33 -11 0 -12 4 -4 19 13 25 13
34 0 26 -5 -3 -10 -1 -10 5 0 7 -8 9 -20 5 -21 -7 -28 10 -7 18 7 3 5 6 -5 6
-21 1 -22 2 -6 32 10 19 22 24 56 25 25 1 42 -3 42 -10 0 -8 2 -8 8 0 6 10 56
20 72 14 19 -6 332 -2 338 5 4 5 1 5 -7 0 -14 -8 -14 -4 6 87 3 19 1 28 -7 28
-10 0 -10 3 -1 14 8 10 9 16 1 21 -5 3 -10 1 -10 -6 0 -9 -3 -9 -14 0 -11 9
-15 9 -19 -1 -4 -10 -8 -10 -16 2 -13 18 -12 19 30 21 18 2 42 7 52 11 15 8
16 12 5 26 -11 13 -11 15 5 9 13 -5 17 -1 17 18 0 13 5 27 11 31 8 4 7 9 -2
15 -11 6 -11 11 -1 21 6 6 12 21 12 33 0 16 -2 17 -10 5 -6 -9 -10 -10 -10 -3
0 7 9 17 20 23 11 6 20 8 20 4 0 -3 7 -1 15 6 8 7 24 10 35 7 14 -4 26 3 40
23 11 15 17 30 14 33 -4 3 7 2 22 -2 21 -5 30 -14 32 -33 2 -20 7 -25 23 -21
11 3 19 0 19 -6 0 -7 5 -9 10 -6 6 3 10 1 10 -5 0 -8 -7 -9 -17 -5 -10 4 -25
7 -33 8 -8 0 -23 7 -33 15 -9 8 -20 12 -24 9 -3 -4 -1 -7 6 -7 7 0 9 -5 5 -12
-4 -7 -3 -8 4 -4 6 3 16 -3 23 -15 7 -15 8 -24 1 -28 -6 -3 -12 -18 -15 -31
-5 -34 -29 -82 -47 -97 -13 -10 -10 -12 15 -13 26 -1 27 -2 12 -11 -9 -6 -15
-14 -12 -20 4 -5 1 -9 -5 -9 -7 0 -10 -7 -6 -15 3 -9 0 -15 -9 -15 -8 0 -14
-3 -14 -7 4 -26 -3 -35 -22 -30 -26 7 -69 -8 -69 -24 0 -8 4 -8 14 0 8 7 17 8
19 4 8 -13 -5 -30 -28 -36 -12 -3 -4 -5 18 -6 20 0 37 -5 37 -9 0 -4 55 -7
123 -6 216 5 311 4 336 -1 13 -2 28 -2 34 2 6 3 29 6 53 6 l42 -1 -1 50 c0 28
4 53 9 56 17 12 10 55 -8 58 -10 1 -18 -2 -18 -7 0 -5 7 -9 15 -9 8 0 15 -4
15 -9 0 -6 -12 -6 -28 -2 -27 8 -69 -8 -56 -22 3 -3 -4 -8 -15 -12 -12 -3 -21
-11 -21 -16 0 -5 -7 -9 -16 -9 -12 0 -15 -6 -10 -26 5 -17 3 -23 -4 -19 -5 3
-10 15 -10 26 0 23 -4 24 -35 3 -14 -9 -25 -12 -25 -8 0 5 -5 2 -10 -6 -7 -12
-10 -8 -11 15 l-1 30 -19 -40 -20 -40 3 32 c2 24 -4 36 -25 53 -15 12 -27 18
-27 15 0 -4 -6 -2 -14 4 -11 9 -15 8 -20 -5 -4 -9 -9 -14 -13 -11 -3 4 -1 12
4 19 16 21 23 60 10 55 -7 -3 -11 -9 -10 -14 1 -6 -9 -8 -22 -5 -15 2 -25 0
-25 -7 0 -6 5 -11 11 -11 5 0 7 -5 3 -11 -3 -6 0 -16 7 -21 10 -7 7 -7 -8 -3
-18 5 -23 2 -23 -12 -1 -16 -2 -16 -10 -2 -5 9 -7 33 -3 53 5 35 8 38 34 32
16 -3 31 -1 34 4 3 5 14 8 25 7 10 -1 17 -4 15 -7 -2 -3 3 -21 11 -40 l15 -34
21 22 c18 17 19 23 8 36 -11 14 -7 16 29 16 36 0 41 3 47 27 3 16 12 45 20 66
8 21 12 43 9 48 -4 5 -1 9 5 9 6 0 8 5 5 11 -9 13 -15 7 -20 -19 -2 -11 -8
-29 -13 -39 -11 -20 -12 -24 -12 -50 0 -13 -3 -14 -12 -5 -9 9 -10 19 -1 43
10 25 9 31 -3 36 -22 8 -17 22 6 16 15 -4 20 0 20 16 0 23 -15 29 -23 9 -4 -8
-6 -7 -6 3 -1 10 9 19 24 21 13 3 22 2 20 -2 -3 -4 6 -10 20 -12 20 -4 23 -3
14 8 -9 11 -8 14 0 14 7 0 9 5 6 11 -4 6 2 5 14 -3 24 -14 24 -17 11 -38 -5
-9 -5 -19 2 -27 8 -10 5 -13 -11 -13 -22 0 -23 -1 -27 -40 -1 -14 -6 -42 -10
-63 -6 -35 -5 -37 20 -37 16 0 25 4 21 10 -3 5 -2 10 4 10 5 0 12 -4 16 -10 3
-5 12 -7 20 -3 8 3 15 0 15 -7 0 -8 6 -9 18 -4 9 4 40 9 67 10 28 1 67 2 88 3
21 0 36 5 33 10 -3 5 1 14 8 20 12 10 14 8 12 -13 -3 -22 0 -25 18 -22 16 3
22 -1 22 -15 0 -10 -6 -19 -14 -19 -7 0 -11 -4 -7 -9 3 -5 0 -13 -6 -16 -5 -4
-8 -13 -5 -21 3 -8 -1 -14 -8 -14 -10 0 -12 7 -8 22 4 15 2 19 -7 13 -7 -4
-11 -18 -8 -31 2 -13 1 -21 -4 -19 -4 3 -10 1 -14 -5 -3 -5 -11 -10 -17 -10
-6 0 -5 7 3 17 8 10 9 14 2 10 -6 -4 -14 -3 -18 3 -4 6 -10 8 -15 5 -5 -3 -13
2 -18 11 -8 15 -11 14 -26 -7 -20 -29 -20 -48 -1 -55 10 -4 13 -13 10 -25 -5
-15 -2 -18 13 -16 11 2 28 9 38 17 16 13 17 13 12 -1 -6 -15 0 -16 50 -12 66
6 86 7 202 4 47 -2 79 -5 73 -8 -18 -7 -16 -23 2 -23 9 0 18 7 21 15 4 8 15
15 26 15 20 0 20 0 0 -34 -15 -25 -17 -37 -9 -45 8 -8 4 -11 -16 -11 -25 0
-27 2 -17 20 15 27 -15 40 -34 15 -7 -10 -18 -15 -25 -11 -6 4 -23 -2 -38 -14
-20 -16 -28 -18 -35 -8 -6 10 -10 10 -18 -2 -8 -12 -10 -11 -10 8 0 13 -4 21
-9 17 -5 -3 -17 2 -26 11 -15 15 -15 18 1 35 11 12 13 19 5 19 -6 0 -14 -6
-17 -14 -3 -8 -12 -12 -20 -9 -10 4 -12 0 -8 -11 3 -9 10 -13 16 -10 5 3 4 -3
-4 -15 -7 -12 -21 -21 -31 -21 -14 0 -16 5 -11 26 5 20 3 25 -7 22 -8 -3 -13
-15 -13 -26 1 -12 -3 -22 -8 -22 -5 0 -6 -6 -2 -13 5 -7 0 -6 -11 3 -17 14
-18 13 -12 -2 3 -10 2 -18 -3 -18 -6 0 -10 4 -10 9 0 5 -11 4 -24 -2 -14 -7
-22 -17 -19 -27 4 -12 3 -12 -5 -1 -6 8 -15 10 -22 6 -9 -5 -11 -4 -6 3 5 8
-1 12 -18 12 -13 0 -26 -6 -29 -12 -3 -10 -9 -11 -26 0 -11 6 -27 12 -35 12
-8 0 -18 4 -21 10 -3 6 1 7 9 4 11 -4 16 0 17 12 0 11 3 14 6 7 8 -22 20 -14
18 12 -2 14 1 25 6 25 5 0 9 4 9 8 0 5 -7 9 -15 9 -8 0 -15 -6 -15 -13 0 -9
-10 -12 -30 -9 -16 2 -30 -1 -30 -6 0 -5 10 -9 23 -9 16 0 18 -3 8 -9 -7 -5
-23 -6 -35 -4 -17 4 -18 3 -6 -6 13 -9 12 -11 -1 -16 -9 -3 -22 -5 -29 -3 -7
2 -15 -3 -17 -9 -3 -7 0 -13 6 -13 6 0 11 -5 11 -11 0 -8 -4 -8 -12 -2 -7 5
-26 8 -43 7 -21 -2 -26 -1 -15 6 12 7 12 12 2 22 -6 6 -12 9 -12 4 0 -4 -7 0
-16 9 -13 13 -19 14 -25 4 -12 -20 -47 -18 -52 3 -3 10 -11 18 -18 18 -7 0
-10 -3 -6 -6 10 -10 -20 -34 -43 -34 -17 0 -20 4 -15 21 6 17 4 20 -6 13 -8
-5 -21 -7 -30 -6 -9 2 -22 -5 -30 -15 -9 -11 -10 -14 -1 -9 6 4 12 2 12 -3 0
-6 -4 -11 -10 -11 -5 0 -10 -7 -10 -15 0 -20 -16 -19 -24 1 -3 8 -2 12 4 9 15
-9 11 17 -5 39 -13 17 -15 17 -21 3 -8 -22 -24 -22 -21 1 1 9 -2 18 -8 20 -5
1 -10 -3 -10 -9 0 -7 -9 -17 -20 -23 -11 -6 -23 -15 -26 -20 -4 -5 -17 -6 -29
-3 -17 4 -19 3 -9 -9 6 -8 9 -17 6 -21 -4 -3 -1 -13 6 -21 11 -13 9 -14 -13
-2 -15 8 -20 15 -12 18 17 5 15 19 -3 26 -20 7 -49 -48 -40 -81 5 -22 4 -23
-15 -13 -13 7 -20 7 -20 0 0 -5 6 -10 13 -11 6 0 3 -4 -8 -9 -30 -13 -35 -12
-35 10 0 11 4 20 9 20 4 0 7 12 5 27 -1 15 2 33 8 40 7 9 7 13 -1 13 -7 0 -9
4 -6 10 3 5 -1 10 -9 10 -9 0 -16 4 -16 9 0 5 -7 11 -14 14 -10 4 -13 1 -9 -9
4 -10 0 -12 -11 -8 -9 3 -16 15 -16 25 0 12 -5 16 -15 13 -20 -8 -19 6 3 22
15 13 14 13 -8 5 -14 -5 -24 -14 -22 -21 1 -6 -6 -23 -16 -38 -18 -26 -55
-188 -47 -203 3 -4 22 -5 42 -2 57 7 344 6 378 -1 23 -5 26 -4 15 4 -11 8 -2
10 35 5 28 -3 95 -6 150 -5 323 2 413 1 440 -4 23 -5 26 -4 15 4 -11 8 -2 10
35 5 28 -3 95 -6 150 -5 323 2 413 1 440 -4 23 -5 26 -4 15 4 -11 8 -2 10 35
5 73 -9 114 -9 170 -2 35 4 45 3 35 -4 -11 -7 -7 -8 15 -3 50 10 208 12 233 3
13 -5 29 -6 35 -2 14 9 97 11 92 3 -2 -3 6 -7 18 -7 18 -2 19 0 7 8 -11 7 0 8
35 4 73 -9 114 -9 170 -2 35 4 45 3 35 -4 -11 -7 -7 -8 15 -3 17 3 48 7 70 8
22 1 46 5 53 9 6 5 16 6 20 3 5 -3 37 -8 71 -12 l62 -6 -2 141 -3 141 -26 0
c-15 0 -29 -3 -33 -6 -7 -7 17 -34 31 -34 6 0 12 -7 16 -15 3 -8 1 -15 -4 -15
-6 0 -10 5 -10 11 0 8 -6 7 -17 -2 -9 -8 -14 -9 -11 -4 4 6 3 17 -3 25 -5 10
-9 11 -9 3 0 -7 -6 -10 -14 -7 -10 4 -12 -2 -9 -20 4 -17 1 -26 -7 -26 -7 0
-10 7 -6 16 4 9 -7 2 -23 -15 -30 -32 -76 -47 -51 -16 7 8 10 16 6 16 -3 1
-10 2 -16 3 -5 0 -15 7 -22 15 -10 10 -10 12 0 7 14 -8 17 10 3 18 -13 8 -71
-26 -71 -41 0 -7 -9 -13 -20 -13 -11 0 -20 5 -20 11 0 5 5 7 10 4 6 -3 10 -1
10 4 0 23 -33 6 -43 -21 -6 -18 -37 -15 -37 3 0 5 -10 9 -22 9 -19 0 -20 2 -8
10 9 6 10 10 3 10 -6 0 -15 -4 -18 -10 -14 -23 -35 -10 -33 23 1 17 -2 39 -6
48 -7 15 10 17 177 15 102 0 184 1 182 4 -2 3 16 4 38 4 23 -1 48 1 55 3 16 7
17 268 1 279 -8 4 -7 9 2 15 12 7 12 9 0 9 -10 0 -11 3 -2 14 16 19 15 2016 0
2016 -7 0 -9 -9 -6 -21 7 -25 -1 -49 -15 -49 -6 0 -8 6 -5 14 3 7 0 19 -6 25
-8 8 -8 11 1 11 7 0 12 7 12 15 0 9 6 18 14 21 12 5 15 40 15 192 1 121 -2
182 -9 172 -5 -8 -12 -33 -16 -55 -3 -22 -10 -45 -15 -50 -4 -6 -8 -20 -8 -30
-1 -52 -17 -122 -33 -142 -5 -6 -11 -42 -14 -80 -10 -152 -13 -183 -19 -193
-3 -6 -2 -10 4 -10 10 0 15 13 26 65 4 21 12 31 26 32 16 2 19 -2 13 -20 -4
-12 -13 -26 -21 -30 -7 -5 -11 -13 -7 -18 4 -6 12 -5 22 3 16 12 16 11 1 -7
-9 -11 -14 -26 -12 -32 3 -7 0 -13 -7 -13 -6 0 -8 -4 -5 -10 3 -5 -1 -23 -10
-39 -8 -17 -15 -38 -15 -47 0 -16 2 -15 22 2 14 12 18 13 10 3 -6 -9 -9 -19
-6 -22 4 -3 -3 -18 -15 -33 -17 -22 -21 -23 -21 -9 0 10 -3 15 -7 11 -11 -10
-12 -36 -2 -36 5 0 9 -5 9 -11 0 -5 -4 -8 -9 -5 -5 4 -7 -3 -4 -14 4 -14 0
-20 -12 -20 -11 0 -15 -5 -11 -16 3 -8 1 -25 -6 -37 -6 -12 -12 -28 -12 -37
-2 -23 -27 -94 -37 -104 -5 -5 -4 5 1 24 5 19 8 36 5 38 -5 5 -18 -28 -29 -72
-7 -27 -6 -28 9 -16 15 13 17 11 13 -10 -2 -15 -9 -24 -17 -22 -12 3 -12 0 -1
-12 11 -15 7 -20 -13 -17 -4 1 -6 -15 -4 -34 3 -24 -2 -42 -14 -57 -21 -23
-24 -32 -9 -23 5 3 10 2 10 -3 0 -6 -6 -12 -14 -15 -17 -7 -31 -78 -17 -86 18
-11 -25 -161 -46 -161 -7 0 -13 -5 -13 -11 0 -5 5 -7 11 -3 20 12 0 -49 -21
-66 -28 -23 -54 -91 -38 -102 10 -6 9 -8 -3 -8 -10 0 -23 -23 -39 -68 -13 -37
-28 -78 -33 -92 -6 -14 -17 -45 -26 -70 -17 -48 -40 -58 -89 -36 -26 11 -31 7
-38 -30 -6 -32 -20 -51 -31 -41 -4 4 -1 13 5 19 7 7 12 22 12 35 0 13 5 23 11
23 6 0 9 6 6 14 -6 14 33 132 72 219 11 27 21 52 21 55 0 4 9 18 20 32 11 14
20 31 20 37 0 7 16 48 36 90 40 86 61 142 73 189 5 18 12 37 16 44 4 7 9 29
12 49 2 20 10 52 17 71 7 19 11 45 10 58 0 12 3 22 8 22 5 0 8 15 7 33 -2 18
0 38 5 45 7 12 0 127 -10 165 -6 21 -24 23 -24 2 0 -16 -16 -20 -24 -6 -7 11
-46 3 -46 -9 0 -5 6 -11 13 -13 22 -9 -27 -7 -60 2 -22 6 -37 5 -50 -3 -30
-20 -63 -18 -63 5 0 11 -5 29 -10 39 -14 27 -2 67 22 73 11 3 17 10 14 15 -3
6 0 13 6 15 8 3 6 6 -5 6 -10 1 -20 -6 -23 -14 -4 -8 -12 -15 -19 -15 -8 0
-16 -9 -20 -19 -3 -11 -18 -33 -33 -49 -29 -32 -41 -51 -74 -113 -25 -49 -40
-59 -36 -23 2 15 -2 29 -9 31 -8 3 -11 -3 -8 -16 2 -10 -2 -21 -8 -24 -7 -2
-23 -26 -36 -53 -14 -27 -29 -52 -34 -55 -5 -4 3 -7 17 -7 14 0 26 4 26 9 0 4
9 7 20 6 24 -2 25 -7 5 -33 -8 -10 -15 -26 -15 -35 0 -10 -11 -19 -25 -21 -20
-4 -23 -2 -15 12 5 10 17 21 27 24 17 7 17 8 -1 18 -13 7 -20 7 -26 -1 -3 -7
-20 -16 -36 -21 -25 -7 -26 -8 -6 -9 22 -1 22 -1 5 -33 -9 -18 -18 -39 -19
-47 -8 -45 -44 -94 -44 -59 0 6 -3 9 -6 6 -3 -3 1 -15 8 -27 10 -17 10 -25 0
-41 -6 -11 -12 -28 -12 -37 0 -15 2 -16 10 -3 15 25 23 3 11 -33 -12 -34 -7
-67 10 -67 5 0 9 5 9 12 0 6 2 9 5 6 9 -9 -6 -38 -20 -38 -8 0 -17 -9 -20 -20
-7 -22 -25 -27 -26 -7 0 6 -5 2 -11 -11 -12 -24 -2 -45 11 -23 12 19 20 0 10
-26 -5 -15 -14 -21 -24 -17 -10 4 -15 0 -15 -15 0 -12 -4 -21 -10 -21 -5 0 -7
-7 -3 -15 3 -10 1 -15 -7 -13 -7 2 -15 -3 -18 -11 -2 -8 0 -11 6 -8 5 4 15 0
22 -8 10 -12 9 -15 -7 -15 -11 0 -25 -10 -31 -22 -10 -21 -11 -22 -11 -3 -1
17 -3 17 -15 -6 -7 -14 -17 -39 -21 -55 l-8 -29 -7 25 c-4 16 -1 34 9 50 10
15 11 21 4 17 -7 -5 -13 -6 -13 -2 0 3 6 14 13 25 10 17 9 22 -3 30 -8 5 -10
10 -4 10 16 0 67 167 79 258 2 13 7 28 12 35 6 7 15 26 21 42 6 17 17 44 23
60 7 17 13 32 14 35 19 58 41 81 57 59 10 -14 7 0 -8 51 -4 12 -2 20 5 20 7 0
10 4 6 9 -3 5 2 16 11 25 8 9 13 20 10 24 -6 11 17 91 30 100 18 13 53 92 41
92 -8 0 -7 3 2 9 8 5 9 11 3 15 -6 3 -13 -3 -17 -14 -7 -21 -25 -28 -25 -10 0
6 -8 5 -20 -2 -10 -7 -21 -10 -24 -7 -5 5 16 74 26 84 3 3 3 22 1 42 -4 36 -3
36 16 19 18 -17 20 -16 34 4 8 11 20 20 27 18 7 -2 15 3 18 11 2 8 0 11 -6 7
-6 -3 -13 -2 -17 4 -3 5 1 10 9 10 9 0 13 6 10 14 -3 7 2 20 10 29 9 9 16 24
16 35 0 27 45 66 67 58 10 -4 13 -10 8 -14 -13 -9 -33 -41 -46 -74 -6 -16 -15
-28 -20 -28 -5 0 -8 -3 -7 -7 1 -5 -6 -26 -15 -47 -10 -22 -20 -51 -24 -65 -5
-22 -2 -20 21 12 14 21 26 42 26 47 0 6 5 10 10 10 6 0 10 9 10 19 0 11 6 18
16 17 10 0 27 17 42 44 14 25 31 49 38 53 8 4 14 17 14 27 0 11 5 20 10 20 16
0 30 44 16 52 -7 5 -5 8 5 8 9 0 25 12 34 27 14 21 15 30 6 46 -8 12 -8 17 -2
12 6 -3 23 3 36 14 l26 19 -23 16 -22 16 22 0 c13 0 22 6 22 15 0 9 7 18 15
21 11 5 13 10 5 19 -5 6 -6 16 -2 20 4 5 1 5 -6 1 -7 -5 -11 -14 -8 -22 3 -8
-1 -14 -9 -14 -18 0 -28 17 -15 25 6 4 8 9 6 13 -2 4 7 8 22 9 31 1 48 26 51
73 1 13 6 17 16 14 8 -4 15 -1 15 5 0 6 4 11 9 11 10 0 7 -47 -5 -84 -4 -11
-8 -28 -9 -36 -2 -8 -6 -24 -10 -35 -5 -16 -3 -15 13 5 11 13 18 28 15 33 -2
4 0 13 5 20 5 7 12 25 16 42 10 41 27 60 37 43 7 -10 9 -9 9 5 0 9 -6 17 -12
17 -8 0 -5 7 6 15 11 8 17 18 13 21 -4 4 -2 13 4 21 9 10 8 13 -5 13 -9 0 -16
5 -16 10 0 6 4 10 9 10 13 0 7 30 -8 39 -7 5 -12 11 -12 15 3 20 0 26 -9 21
-6 -4 -9 -21 -6 -39 4 -26 2 -32 -13 -32 -15 0 -17 5 -10 31 5 16 8 39 7 50 0
11 3 29 7 40 8 20 8 20 -13 1 -18 -15 -20 -22 -10 -34 10 -12 9 -14 -7 -10
-11 2 -26 -3 -32 -12 -11 -13 -14 -13 -22 -1 -5 8 -8 23 -6 33 2 10 0 18 -6
18 -5 0 -9 -7 -9 -15 0 -8 -4 -15 -10 -15 -5 0 -10 -7 -10 -15 0 -8 -7 -15
-15 -15 -12 0 -13 4 -6 18 5 10 6 24 1 31 -6 10 -10 8 -16 -10 -4 -13 -7 -29
-6 -36 2 -6 -2 -14 -8 -18 -5 -3 -10 -15 -10 -26 0 -10 -6 -19 -13 -19 -15 0
-16 27 -3 49 5 8 10 30 12 50 2 20 11 62 20 94 13 42 22 57 36 57 10 0 18 7
18 16 0 13 -3 14 -14 5 -10 -9 -17 -7 -27 6 -9 11 -10 14 -1 9 7 -4 12 -2 12
6 0 11 -41 14 -212 15 -117 1 -207 -1 -200 -4 21 -8 13 -23 -14 -23 -14 0 -23
-4 -19 -10 3 -6 0 -10 -7 -10 -8 0 -6 -5 5 -11 9 -5 17 -17 17 -24 0 -8 5 -15
10 -15 6 0 10 -8 10 -17 0 -15 -2 -16 -10 -3 -6 10 -10 11 -10 3 0 -7 -11 -13
-25 -13 -16 0 -25 -6 -25 -16 0 -12 7 -15 29 -12 l29 4 -21 -28 c-18 -24 -47
-42 -34 -20 3 4 -9 8 -26 8 -18 1 -24 -1 -14 -3 19 -5 22 -21 6 -43 -8 -11
-12 -12 -16 -2 -3 8 -13 0 -27 -20 -18 -26 -28 -32 -50 -30 -18 2 -25 -1 -21
-7 4 -7 -5 -11 -22 -10 -15 0 -22 3 -15 6 6 2 12 11 12 19 0 8 5 14 10 14 6 0
10 7 10 15 0 8 6 15 13 15 8 0 7 4 -3 11 -11 8 -5 9 23 4 40 -6 54 12 16 22
-21 6 -21 7 -4 20 18 12 18 13 -3 13 -12 0 -22 5 -22 11 0 6 9 9 20 6 17 -4
20 -2 15 14 -4 13 -2 19 9 19 13 0 23 15 27 45 1 6 9 15 18 22 9 7 12 13 6 13
-5 0 -4 4 4 9 21 14 3 31 -32 30 -18 -1 -24 -3 -14 -6 14 -4 16 -8 6 -19 -6
-7 -16 -11 -21 -8 -6 4 -5 -4 2 -16 15 -29 -1 -41 -45 -34 -16 2 -36 5 -42 6
-19 2 -16 14 9 30 12 8 18 19 14 26 -12 21 -24 13 -37 -23 -9 -25 -19 -35 -34
-35 -19 1 -19 1 -2 14 9 7 17 16 17 20 0 11 -28 6 -33 -7 -4 -8 -6 -8 -6 2 -1
8 6 23 16 33 15 17 15 18 -8 18 -26 0 -54 -33 -54 -64 0 -11 -7 -22 -14 -24
-9 -3 -11 0 -7 9 4 8 0 5 -8 -5 -9 -11 -16 -24 -16 -30 0 -5 -3 -7 -6 -3 -7 6
35 98 51 110 5 4 -1 7 -14 5 -20 -2 -35 -26 -90 -134 -57 -114 -111 -228 -116
-244 -6 -23 -18 -59 -24 -75 -24 -61 -30 -89 -20 -95 6 -4 4 -11 -6 -20 -8 -7
-15 -19 -15 -28 0 -8 -8 -21 -17 -28 -15 -11 -16 -16 -6 -33 11 -17 10 -19 -2
-15 -10 4 -15 0 -15 -11 0 -9 -5 -26 -12 -38 -13 -23 -17 -47 -21 -108 -1 -20
-9 -44 -16 -53 -9 -10 -10 -16 -2 -16 15 0 14 -16 -4 -33 -12 -12 -12 -21 -3
-47 7 -21 13 -28 18 -20 5 7 15 10 24 7 8 -3 18 -2 21 3 4 6 1 10 -4 10 -6 0
-11 5 -11 11 0 5 5 7 12 3 6 -4 17 1 24 10 8 11 14 13 19 7 3 -6 -1 -14 -9
-17 -9 -3 -14 -10 -11 -14 3 -5 1 -11 -5 -15 -5 -3 -10 -15 -10 -26 0 -11 4
-18 8 -15 4 2 14 0 22 -5 13 -8 13 -10 0 -18 -10 -7 -17 -6 -22 2 -4 6 -11 8
-15 3 -4 -4 0 -13 9 -20 10 -7 15 -15 13 -18 -3 -3 13 -5 34 -5 22 0 39 3 39
6 -3 11 13 51 21 51 4 0 8 17 9 37 2 21 10 45 19 55 9 10 13 21 10 24 -3 4 -1
16 6 28 12 21 14 27 16 55 1 11 5 10 21 -4 17 -16 21 -16 35 -2 8 9 14 22 13
29 -2 7 4 12 12 10 11 -3 12 0 4 8 -15 15 -48 2 -34 -15 14 -17 1 -26 -22 -14
-19 10 -19 11 4 31 22 19 22 20 4 34 -18 13 -18 14 9 24 22 8 31 7 45 -5 22
-20 31 -72 16 -88 -13 -14 -18 -39 -19 -84 -1 -33 -11 -44 -20 -20 -2 6 -4 0
-3 -16 1 -16 8 -29 19 -33 9 -3 17 -11 17 -19 0 -7 5 -15 12 -17 8 -3 7 -6 -3
-10 -20 -8 -50 11 -31 19 14 6 6 23 -12 23 -7 0 -12 -14 -11 -39 0 -21 3 -37
8 -34 4 2 7 0 7 -5 0 -13 -38 -21 -74 -17 -25 3 -28 1 -23 -21 3 -17 1 -24 -8
-20 -19 7 -41 -74 -23 -85 10 -7 9 -9 -4 -9 -10 0 -18 -4 -18 -9 0 -5 -11 -4
-25 2 -14 7 -25 15 -25 20 0 4 -14 7 -32 7 -21 0 -29 3 -22 10 6 6 21 6 43 0
28 -8 32 -7 27 7 -4 9 1 26 9 39 9 13 14 24 13 25 -2 0 -19 2 -38 5 -30 3 -38
0 -55 -26 -21 -31 -41 -41 -31 -15 9 25 -11 17 -38 -15 -14 -17 -27 -29 -30
-28 -2 2 -8 0 -12 -4 -4 -5 -2 -8 4 -8 7 0 12 -5 12 -11 0 -5 -4 -7 -10 -4 -5
3 -10 2 -10 -4 0 -5 -3 -18 -7 -28 -6 -16 -5 -16 10 -4 28 23 30 6 2 -20 -29
-28 -30 -40 -10 -79 17 -32 35 -40 35 -14 0 8 5 12 10 9 6 -3 10 -1 10 5 0 6
5 8 10 5 6 -4 4 -12 -5 -21 -17 -17 -20 -28 -6 -19 5 3 12 1 16 -5 3 -5 -1
-10 -9 -10 -9 0 -16 -9 -16 -21 0 -11 5 -17 10 -14 6 3 10 1 10 -5 0 -7 -8 -9
-19 -5 -11 3 -22 1 -25 -4 -4 -5 3 -12 14 -16 25 -8 26 -22 3 -28 -17 -4 -17
-5 0 -6 21 -1 22 -15 3 -34 -11 -11 -12 -17 -3 -27 10 -10 8 -12 -5 -7 -12 4
-15 2 -11 -9 3 -9 0 -14 -7 -12 -12 3 -34 -51 -25 -60 2 -2 22 -1 45 3 29 5
40 11 36 20 -4 11 0 12 17 6 14 -5 21 -15 19 -26 -3 -17 -3 -17 14 -1 16 17
18 17 27 1 6 -12 3 -22 -10 -37 -10 -12 -13 -18 -7 -15 7 4 15 0 18 -9 3 -8 2
-12 -3 -9 -20 12 -37 -52 -17 -66 4 -4 4 -9 -2 -13 -6 -3 -17 1 -25 9 -9 8
-17 11 -19 6 -2 -5 -16 -11 -33 -13 -55 -6 -70 -39 -23 -51 23 -6 23 -6 3 9
l-20 16 20 -4 c21 -3 31 -37 21 -64 -4 -11 -10 -12 -25 -4 -14 7 -22 7 -26 -1
-4 -6 -18 -8 -31 -5 -17 5 -26 1 -34 -13 -12 -24 -13 -42 -1 -22 6 9 11 10 15
3 4 -6 -6 -18 -21 -26 -15 -8 -23 -15 -17 -16 12 0 7 -50 -5 -50 -10 0 -7 82
3 98 7 12 11 28 21 92 1 8 12 15 25 15 13 0 25 6 28 13 3 11 0 12 -17 3 -19
-11 -22 -9 -27 19 -6 30 -34 43 -34 15 0 -7 -6 -18 -12 -22 -18 -11 -16 -47 2
-55 13 -6 13 -7 -1 -7 -23 -1 -44 -27 -27 -34 10 -4 10 -7 1 -14 -7 -5 -15
-22 -17 -39 -2 -16 -9 -42 -15 -58 -7 -16 -10 -35 -7 -43 3 -7 1 -13 -4 -13
-13 0 -47 -128 -43 -167 0 -7 -3 -10 -8 -7 -5 3 -9 0 -9 -5 0 -6 5 -11 12 -11
6 0 4 -6 -5 -13 -16 -11 -59 -142 -71 -218 -4 -19 -12 -42 -19 -50 -6 -8 -11
-12 -10 -10 2 2 -2 10 -9 18 -9 11 -8 13 3 11 8 -2 14 5 14 17 1 11 4 26 8 33
5 6 6 12 2 12 -3 0 2 16 10 36 8 20 15 49 15 64 0 14 3 30 7 33 3 4 7 17 9 29
2 22 6 40 18 96 3 12 8 28 13 35 4 6 9 29 10 50 2 21 7 47 13 57 9 17 7 20
-10 20 -11 0 -20 5 -20 11 0 5 10 9 23 7 19 -3 22 2 23 32 0 19 4 45 8 58 6
17 3 28 -11 39 -15 12 -15 14 -1 9 12 -3 20 4 27 26 15 43 14 48 -11 49 -23 0
-22 1 2 12 33 15 42 30 27 42 -6 6 -11 17 -11 25 1 8 2 23 3 33 0 9 8 17 16
17 16 0 40 73 31 96 -3 8 -2 14 3 14 4 0 8 14 9 30 0 17 -4 30 -9 30 -6 0 -3
7 5 16 19 19 21 34 4 34 -8 1 -5 6 6 15 10 7 15 18 11 24 -3 6 -1 11 5 11 7 0
10 7 6 15 -3 8 -1 15 5 15 6 0 9 7 6 15 -4 8 -1 17 5 21 7 4 6 9 -3 14 -10 7
-10 12 2 26 15 18 21 66 7 58 -4 -3 -8 -1 -8 5 0 5 9 13 20 16 22 7 27 25 8
25 -8 0 -9 3 -3 8 6 4 10 16 9 27 0 11 2 24 5 30 5 10 10 38 12 65 2 27 31
124 46 153 8 15 13 35 12 45 -1 9 3 30 9 45 7 16 12 37 12 48 0 10 4 19 9 19
6 0 9 12 8 28 -2 15 11 63 26 107 16 44 35 95 41 113 6 17 15 32 19 32 5 0 6
4 3 9 -6 8 25 109 41 134 4 6 9 21 10 32 2 10 7 22 12 25 18 11 42 80 36 99
-4 14 -1 23 9 27 9 3 16 11 16 16 0 6 8 17 18 24 16 13 16 13 -1 14 -26 0 -15
23 14 30 22 5 22 7 5 13 -24 9 -49 -11 -43 -35 3 -10 1 -18 -3 -18 -5 0 -17
-3 -27 -7 -16 -6 -16 -5 -4 10 8 10 12 20 9 23 -6 6 -58 -61 -58 -75 0 -6 -5
-11 -11 -11 -5 0 -7 -5 -4 -10 3 -6 1 -10 -5 -10 -6 0 -9 -4 -6 -8 2 -4 -4
-14 -15 -20 -19 -12 -19 -11 -9 10 10 20 8 20 -12 -4 -13 -15 -31 -37 -41 -50
-17 -22 -17 -22 -1 17 9 22 25 62 35 89 20 53 45 86 65 86 7 0 11 6 8 14 -3 8
-1 17 5 21 24 14 8 25 -37 25 -43 0 -50 -3 -62 -27 -8 -16 -14 -30 -14 -33 -1
-3 -8 -24 -18 -45 -9 -22 -25 -65 -36 -95 -11 -30 -23 -64 -28 -75 -4 -11 -8
-24 -9 -30 -3 -24 -18 -71 -26 -80 -4 -5 -7 -12 -7 -15 2 -14 -14 -100 -18
-100 -3 0 -15 5 -26 11 -12 6 -18 7 -14 1 3 -5 0 -15 -8 -21 -11 -9 -15 -9
-18 0 -2 7 -8 6 -17 -5 -12 -14 -10 -16 12 -16 14 0 28 4 31 9 6 9 35 9 38 0
1 -2 -2 -21 -6 -41 -7 -41 -19 -53 -38 -41 -24 14 -38 11 -38 -8 0 -10 -4 -19
-8 -19 -5 0 -15 -22 -22 -50 -8 -29 -19 -50 -27 -50 -8 0 -11 -5 -7 -11 3 -6
3 -14 -2 -18 -5 -3 -18 -21 -28 -40 -17 -30 -17 -34 -3 -28 10 4 17 2 17 -4 0
-6 -9 -13 -20 -16 -11 -3 -18 -9 -15 -13 7 -11 -15 -7 -44 9 -21 12 -23 11
-18 -2 4 -11 2 -14 -9 -10 -7 3 -14 0 -14 -6 0 -10 20 -15 47 -12 21 3 25 -19
9 -44 -11 -16 -12 -25 -5 -25 8 0 8 -4 -1 -15 -8 -10 -9 -15 -2 -15 6 0 9 -7
6 -15 -4 -8 -12 -15 -20 -15 -8 0 -14 -7 -14 -16 0 -10 6 -14 15 -11 8 4 17 2
20 -3 4 -6 0 -10 -8 -10 -8 0 -17 -13 -21 -30 -3 -20 -12 -30 -23 -30 -15 0
-16 -2 -3 -10 9 -6 11 -13 5 -17 -5 -5 -11 -19 -12 -33 -1 -14 -6 -43 -13 -65
-6 -22 -17 -67 -25 -100 -26 -111 -30 -118 -59 -126 -24 -7 -26 -5 -20 14 6
19 5 20 -10 8 -30 -25 -20 -43 22 -36 33 6 35 5 20 -8 -23 -18 -23 -31 -1 -23
10 4 14 3 9 -1 -4 -4 -15 -8 -24 -9 -60 -4 -58 -2 -36 -19 10 -8 15 -15 9 -15
-5 0 -3 -4 5 -10 12 -7 12 -12 -5 -29 -10 -12 -21 -19 -24 -16 -3 4 1 10 9 15
13 8 13 11 1 22 -11 10 -14 10 -18 1 -6 -18 -23 -16 -23 2 0 8 -5 15 -12 15
-6 0 -3 6 7 14 11 8 16 20 12 29 -3 8 0 21 8 27 8 6 12 24 10 41 -3 17 0 38 5
47 5 9 13 32 19 49 8 27 7 34 -7 43 -16 9 -16 9 0 10 23 0 28 22 9 38 -15 12
-15 13 0 9 17 -5 17 -3 23 54 2 20 9 46 15 57 16 30 14 34 -11 22 l-23 -11 23
18 c14 12 28 41 38 83 8 36 19 74 24 85 14 33 31 92 29 101 -1 5 4 23 11 39 7
17 13 39 15 50 5 46 18 95 25 95 4 0 8 10 7 23 0 12 3 30 7 39 6 13 3 16 -16
12 -19 -3 -18 -2 5 8 16 7 30 23 34 38 3 14 10 27 14 30 5 3 10 17 11 30 2 14
5 27 8 30 3 3 13 23 23 44 16 35 17 40 3 48 -23 13 -20 26 6 30 12 2 23 8 25
15 3 7 -3 9 -16 6 -13 -3 -21 -1 -21 6 0 7 4 10 9 7 15 -10 43 6 37 20 -3 8 0
14 5 14 7 0 9 11 7 25 -3 15 -1 25 6 24 37 -4 42 2 42 47 1 32 6 51 17 59 9 7
14 15 10 18 -3 4 -1 7 5 7 7 0 12 7 12 16 0 8 3 13 8 11 4 -3 13 1 20 9 8 9 9
14 2 14 -6 0 -9 4 -6 9 9 14 -106 12 -123 -2 -12 -10 -13 -9 -7 1 6 10 -12 13
-88 11 -90 -1 -95 -3 -85 -20 5 -10 13 -18 17 -18 19 3 32 -2 32 -12 0 -8 -5
-8 -15 1 -12 10 -15 10 -15 -1 -1 -10 -4 -9 -14 4 -16 21 -26 22 -26 2 0 -8
-4 -15 -10 -15 -5 0 -10 6 -10 14 0 8 5 18 10 21 28 18 0 25 -93 25 -91 0
-106 -2 -122 -20 -10 -11 -13 -20 -7 -20 7 0 3 -9 -8 -20 -24 -24 -26 -40 -5
-40 28 0 15 -17 -17 -24 -21 -4 -34 -2 -40 6 -6 10 -8 10 -8 1 0 -7 -7 -13
-15 -13 -18 0 -19 9 -1 33 9 12 16 14 21 8 3 -6 13 -11 21 -11 14 0 13 2 0 16
-19 18 -19 20 -5 46 9 16 8 23 -2 29 -21 13 -610 10 -626 -3 -9 -7 -13 -7 -13
1 0 9 -60 11 -224 10 l-225 -1 -6 -29 c-8 -35 -25 -48 -25 -20 0 18 -3 19 -26
11 -14 -6 -30 -8 -35 -4 -5 3 -9 -2 -9 -11 0 -11 -6 -14 -25 -9 -19 5 -25 2
-25 -11 0 -13 3 -15 13 -6 8 6 17 8 20 4 4 -3 13 0 22 7 13 10 15 9 15 -10 0
-16 -4 -20 -16 -16 -18 7 -44 -15 -44 -38 0 -9 -4 -16 -10 -16 -5 0 -7 7 -4
15 4 8 1 15 -5 15 -6 0 -11 -5 -11 -12 0 -6 -8 -30 -19 -52 -10 -23 -28 -85
-41 -138 -19 -82 -25 -95 -36 -83 -15 14 -19 45 -6 45 4 0 7 21 7 46 1 32 6
50 18 59 11 8 19 27 19 46 1 17 16 70 35 117 18 47 33 87 33 89 0 2 -119 3
-263 3 -284 0 -281 1 -301 -54 -3 -10 -9 -16 -12 -13 -3 3 2 19 11 36 l16 31
-430 0 -430 0 -27 -45 c-14 -25 -28 -45 -31 -45 -3 0 7 20 21 45 l27 45 -176
-1 c-96 0 -173 -4 -170 -9 3 -4 -11 -30 -30 -56 -19 -27 -49 -74 -66 -104 -54
-92 -95 -138 -48 -53 12 21 30 56 41 78 11 22 31 61 45 88 30 58 29 59 -103
55 -71 -2 -98 -6 -97 -15 2 -7 -10 -26 -26 -42 -16 -17 -32 -39 -36 -51 -3
-11 -10 -18 -15 -15 -5 3 -11 -4 -15 -15 -4 -11 -11 -17 -17 -14 -6 4 -9 1 -6
-6 2 -7 -10 -28 -28 -45 -18 -18 -44 -50 -58 -71 -14 -22 -58 -84 -96 -139
-39 -55 -75 -109 -80 -120 -15 -33 -59 -80 -66 -72 -4 4 2 20 14 35 60 75 133
192 126 203 -4 7 -3 9 4 5 6 -3 27 18 49 50 21 31 76 109 123 173 47 64 89
121 93 127 4 8 -25 11 -98 13 l-105 1 -28 -45 c-16 -25 -31 -42 -35 -39 -4 4
-7 -2 -7 -14 0 -12 -3 -22 -8 -22 -4 0 -16 -16 -27 -36 -11 -20 -30 -43 -42
-51 -13 -9 -20 -19 -17 -24 3 -5 0 -8 -8 -7 -7 2 -12 -5 -12 -14 1 -10 -5 -18
-12 -18 -8 0 -17 -6 -20 -14 -6 -16 -34 -10 -34 7 0 6 3 8 6 4 3 -3 17 6 29
21 15 17 20 31 14 36 -5 6 -15 3 -24 -10 -15 -18 -16 -18 -9 6 9 33 12 36 26
22 14 -14 32 -16 24 -3 -9 13 22 34 39 27 9 -3 13 -2 10 4 -3 5 -8 20 -10 32
-3 12 -9 24 -15 28 -6 4 0 16 14 29 14 13 30 20 36 16 12 -8 65 44 55 54 -4 3
-111 7 -239 8 l-232 2 0 -22 c1 -15 -5 -22 -16 -21 -11 1 -18 -5 -18 -16 0 -9
-9 -29 -20 -42 -10 -14 -16 -28 -13 -32 3 -3 1 -6 -5 -6 -6 0 -9 -7 -5 -15 3
-10 0 -15 -8 -13 -10 2 -13 -5 -11 -21 l4 -24 -25 26 c-13 15 -27 24 -30 20
-12 -11 -8 -23 8 -23 21 0 20 -5 -24 -64 -22 -30 -37 -57 -33 -61 4 -5 2 -5
-4 -2 -7 4 -17 0 -24 -8 -7 -8 -9 -15 -5 -15 3 0 -3 -15 -14 -34 -12 -18 -21
-40 -21 -48 0 -8 -12 -28 -26 -44 -14 -16 -32 -44 -41 -63 -8 -18 -23 -35 -34
-38 -22 -6 -25 -19 -6 -26 8 -4 7 -6 -3 -7 -17 -1 -66 -63 -101 -129 -13 -25
-34 -54 -46 -66 -13 -12 -23 -25 -23 -29 0 -4 -10 -22 -23 -39 -12 -18 -27
-39 -32 -48 -24 -39 -50 -76 -67 -95 -20 -23 -74 -117 -84 -147 -5 -12 -13
-17 -25 -14 -11 3 -22 1 -25 -4 -8 -14 -24 -10 -24 6 0 8 5 14 10 12 6 -1 18
11 28 28 9 16 25 36 35 43 10 8 17 21 16 30 -4 41 1 52 23 49 17 -1 27 7 39
30 9 18 20 29 24 25 4 -4 4 7 1 24 -8 36 17 109 34 99 5 -3 10 -1 10 4 0 6 8
11 18 11 10 0 29 11 43 26 15 16 18 23 8 19 -11 -4 -18 1 -22 14 -4 17 -2 19
13 11 13 -7 22 -4 37 13 23 25 46 65 49 86 2 8 7 17 12 20 11 7 50 68 58 93 3
9 12 14 20 11 8 -3 14 0 14 6 0 7 -6 14 -14 17 -18 7 -9 34 10 34 8 0 13 3 13
8 -4 22 5 33 47 54 44 21 45 23 27 38 -21 17 -16 40 19 89 15 21 15 25 2 38
-16 17 -13 39 5 36 11 -3 15 8 12 38 -1 9 5 19 13 22 11 4 13 1 9 -11 -5 -12
1 -10 20 7 31 28 33 33 11 24 -12 -4 -15 -2 -12 8 3 8 13 13 22 13 9 -1 16 2
16 8 0 5 4 6 10 3 10 -6 18 22 18 62 l1 22 -264 1 c-258 0 -265 -1 -284 -22
-15 -15 -18 -25 -11 -34 8 -8 6 -13 -5 -18 -9 -3 -13 -2 -10 4 3 6 4 10 1 10
-13 0 -87 -123 -83 -138 4 -14 6 -13 12 6 4 12 14 22 22 22 13 0 13 -4 -2 -26
-11 -17 -13 -29 -7 -33 13 -8 -101 -167 -117 -163 -7 1 -10 -2 -6 -8 5 -9 -73
-125 -139 -206 -14 -18 -26 -36 -26 -40 -1 -15 -59 -80 -60 -66 0 7 -5 10 -11
6 -8 -5 -7 -9 2 -14 9 -6 7 -16 -9 -42 -23 -35 -30 -32 -11 5 14 27 2 15 -34
-35 -32 -44 -35 -58 -6 -32 16 14 12 1 -17 -53 -21 -39 -42 -69 -45 -67 -4 2
-9 -3 -13 -11 -11 -30 -26 -14 -26 29 0 26 14 81 36 136 32 84 91 208 104 220
19 17 60 87 135 233 47 91 98 187 115 214 16 26 36 65 45 86 l15 37 -1214 0
c-1198 0 -1214 0 -1219 -20 -3 -10 1 -24 9 -31 8 -6 11 -15 8 -20 -3 -5 5 -22
18 -39 17 -24 19 -33 10 -39 -7 -4 -10 -15 -6 -24 3 -9 10 -14 15 -11 5 3 9
-4 9 -15 0 -32 -17 -25 -36 14 -11 23 -26 37 -43 41 -14 4 -32 13 -38 22 -9
11 -13 12 -13 3 0 -7 -5 -9 -10 -6 -6 3 -7 17 -4 30 3 13 1 40 -6 59 l-12 36
-61 -1 c-34 0 -56 -3 -49 -6 6 -2 12 -9 12 -13 0 -5 13 -32 30 -60 16 -27 26
-50 22 -50 -7 0 -40 50 -54 83 -8 19 -24 23 -30 5 -3 -7 -13 -5 -31 7 -23 15
-27 15 -27 2 0 -9 14 -29 30 -45 17 -17 30 -36 30 -44 0 -10 -3 -9 -10 2 -5 8
-14 15 -21 15 -6 0 -21 24 -33 52 -21 54 -36 67 -36 36 -1 -17 -1 -17 -14 0
-16 20 -95 24 -114 5 -9 -9 -12 -9 -12 0 0 7 -14 12 -35 12 -19 0 -35 -2 -35
-6 0 -11 51 -79 58 -77 4 1 6 -9 4 -22 -2 -17 1 -25 12 -25 8 0 20 -9 26 -20
8 -15 6 -21 -9 -29 -10 -6 -21 -8 -24 -4 -4 3 -9 -2 -13 -11 -9 -23 -27 -20
-21 4 3 10 0 26 -7 35 -12 17 -72 32 -61 15 3 -5 1 -10 -4 -10 -6 0 -11 4 -11
9 0 5 -10 7 -21 4 -19 -5 -21 -3 -17 20 3 15 2 24 -3 21 -4 -2 -7 4 -6 14 0
11 -10 33 -23 50 l-25 30 -147 0 c-82 0 -148 -3 -148 -7 0 -12 17 -32 26 -30
23 4 76 -15 84 -32 15 -27 12 -35 -5 -13 -9 12 -14 14 -15 6 0 -10 -4 -10 -16
2 -8 9 -18 16 -21 16 -6 0 17 -32 31 -42 6 -4 5 -12 -2 -21 -9 -11 -9 -23 3
-56 18 -51 11 -54 -10 -4 -9 21 -21 40 -26 44 -6 3 -12 18 -12 32 -1 14 -5 23
-8 22 -3 -2 -15 15 -26 39 -21 41 -24 43 -67 44 -36 1 -44 -2 -39 -13 3 -8 9
-15 13 -15 4 0 10 -9 13 -21 5 -18 3 -18 -18 5 -12 14 -25 31 -28 38 -4 8 -6
6 -6 -5 -1 -11 -8 -18 -18 -16 -31 3 -36 -1 -23 -16 11 -13 15 -13 21 -3 7 10
9 10 9 1 0 -7 7 -13 15 -13 8 0 15 -8 15 -18 0 -9 11 -29 25 -44 14 -15 25
-30 25 -33 0 -12 -24 -4 -37 13 -13 15 -13 15 -3 -5 6 -13 19 -23 29 -23 11 0
22 -7 25 -16 10 -26 7 -29 -9 -8 -12 16 -14 16 -15 3 0 -9 9 -24 20 -34 14
-13 18 -25 13 -43 -4 -16 -2 -23 4 -19 14 9 39 -22 47 -57 4 -16 20 -41 37
-57 18 -16 29 -37 29 -53 0 -27 -15 -35 -23 -13 -3 6 -6 -3 -6 -21 -1 -18 2
-31 7 -29 4 3 6 -16 6 -41 -2 -76 -4 -83 -14 -77 -6 4 -10 -5 -10 -20 0 -14 4
-24 9 -20 5 3 13 0 17 -6 4 -8 11 -4 20 12 12 22 13 23 15 4 1 -11 2 -26 2
-32 -1 -7 4 -10 9 -7 5 3 8 0 7 -7 -1 -8 1 -31 6 -52 4 -24 4 -42 -3 -49 -7
-7 -10 -6 -9 3 2 50 -4 80 -15 76 -7 -2 -12 -14 -10 -25 2 -12 -1 -22 -6 -22
-13 0 -24 29 -15 42 3 7 1 8 -5 4 -7 -4 -12 -1 -13 6 -1 30 -18 -30 -18 -69
-1 -23 -5 -45 -11 -48 -6 -4 -10 8 -10 28 0 31 -14 52 -46 70 -13 7 -14 -40
-2 -59 13 -19 18 -69 9 -83 -7 -11 -11 -10 -19 5 -5 11 -7 24 -5 31 5 15 -28
62 -44 63 -12 0 -11 62 2 93 4 9 4 29 0 45 l-8 27 -8 -35 c-5 -19 -6 -45 -4
-57 3 -13 1 -23 -5 -23 -5 0 -10 12 -11 28 -1 32 -1 35 -24 127 -26 110 -26
108 -38 96 -17 -17 -29 -13 -22 8 3 12 0 21 -10 25 -19 7 -20 26 -1 26 8 0 17
7 20 17 6 14 8 14 21 -3 8 -10 15 -14 15 -7 0 7 7 10 16 6 8 -3 13 -11 10 -18
-2 -7 1 -19 7 -26 7 -7 1 -5 -12 6 l-24 20 6 -25 c4 -14 7 -31 7 -38 0 -9 3
-10 13 -2 6 6 21 17 32 25 17 12 19 17 9 44 -10 26 -9 32 7 47 21 19 25 34 8
34 -6 0 -17 7 -25 15 -9 8 -11 15 -5 15 16 0 13 26 -4 44 -8 8 -15 20 -15 26
0 7 -13 29 -30 50 -16 21 -30 45 -30 54 0 9 -4 16 -9 16 -5 0 -17 17 -26 38
-43 91 -44 92 -160 92 -95 0 -104 -2 -98 -17z m824 -297 c8 5 13 -9 10 -28 0
-5 6 -8 14 -8 19 0 19 -5 -1 -36 -16 -24 -16 -26 5 -40 15 -11 20 -22 16 -35
-4 -11 -2 -19 6 -19 8 0 8 -4 2 -12 -14 -18 -23 -57 -14 -62 4 -3 16 5 26 17
19 22 25 64 11 85 -4 7 -1 12 9 12 10 0 15 -8 14 -22 -4 -45 1 -68 15 -68 18
0 24 -8 31 -48 3 -19 1 -32 -5 -32 -6 0 -8 -15 -5 -35 2 -20 0 -33 -5 -30 -5
3 -10 -7 -12 -22 -2 -18 -15 -35 -37 -50 -37 -25 -56 -30 -44 -10 4 6 6 20 5
30 -2 10 1 24 7 31 18 21 8 68 -17 77 -18 7 -22 5 -22 -11 0 -11 9 -29 20 -40
17 -17 18 -21 5 -26 -8 -4 -15 -18 -15 -34 0 -31 -39 -70 -69 -70 -13 1 -12 3
4 12 11 6 23 15 26 21 9 12 2 153 -12 259 -7 48 -9 103 -6 123 4 26 2 38 -8
42 -8 3 -12 9 -9 15 3 5 12 7 20 4 9 -3 14 1 15 12 0 10 3 12 6 4 2 -6 9 -10
14 -6z m9145 -71 c0 0 -12 -9 -25 -20 -16 -13 -21 -15 -16 -5 6 12 5 12 -5 3
-13 -12 -4 -37 11 -28 5 4 9 2 9 -3 0 -12 32 -12 48 1 8 6 12 6 12 -1 0 -6 9
-14 20 -17 26 -8 25 -15 -5 -47 -14 -15 -21 -30 -15 -33 6 -3 5 -16 -2 -33
-16 -36 -54 -82 -62 -75 -3 4 -6 1 -6 -5 0 -7 5 -12 12 -12 6 0 9 -2 6 -5 -3
-3 -17 -1 -31 4 -27 11 -28 41 -2 41 14 0 29 29 20 39 -3 3 -10 -1 -15 -9 -8
-13 -10 -13 -10 1 0 9 -7 19 -15 23 -13 4 -13 2 -5 -14 7 -13 6 -22 -3 -32
-15 -14 -17 -20 -17 -43 0 -8 -7 -15 -15 -15 -8 0 -15 5 -15 11 0 5 -5 7 -11
4 -6 -4 -7 -14 -4 -24 9 -23 15 -87 6 -73 -4 6 -24 18 -45 27 -40 17 -44 39
-7 41 29 2 40 14 13 14 l-22 0 21 21 c19 19 20 21 3 33 -16 12 -15 13 5 19 11
3 21 11 21 17 0 10 -3 10 -15 0 -9 -8 -15 -8 -15 -2 0 6 11 19 25 30 26 21 24
35 -3 25 -10 -4 -14 -2 -9 2 4 5 17 9 30 10 15 1 22 8 23 24 1 13 8 27 15 32
8 4 15 12 15 16 8 45 33 71 56 56 7 -3 8 -1 4 5 -4 7 -4 17 0 24 5 8 10 6 14
-8 4 -10 7 -19 6 -19z m-7790 -54 c43 -38 83 -67 87 -64 5 3 0 14 -9 24 -23
25 -6 46 24 30 16 -8 21 -7 26 5 3 9 4 20 0 25 -10 17 10 9 33 -13 23 -21 32
-45 13 -33 -5 3 -10 0 -10 -7 1 -15 74 -68 94 -68 14 0 76 -58 76 -72 0 -4 -5
-8 -12 -8 -30 0 13 -17 49 -19 7 -1 19 -14 28 -31 21 -42 60 -66 80 -50 18 15
71 4 87 -19 7 -9 23 -18 36 -18 13 -1 30 -7 38 -14 17 -14 19 -66 2 -72 -10
-3 -10 -7 1 -20 16 -20 32 -13 24 11 -5 14 -3 15 7 5 8 -7 15 -18 17 -25 10
-46 39 -118 46 -118 5 0 6 8 2 18 -4 9 -10 30 -13 46 -2 16 -10 40 -17 53 -12
23 -9 73 5 73 4 0 7 15 7 33 0 17 1 42 1 55 l2 23 29 -20 c16 -12 33 -21 38
-21 4 0 2 4 -5 9 -11 7 -11 9 1 14 17 6 32 -19 17 -28 -6 -4 1 -21 15 -40 35
-45 49 -95 28 -95 -12 0 -10 -6 8 -24 54 -55 69 -82 74 -131 2 -26 40 -112 55
-125 31 -27 32 -48 2 -52 -18 -2 -28 -10 -29 -23 l-3 -20 9 20 c7 17 10 15 20
-20 6 -22 11 -46 11 -54 0 -20 51 -131 60 -131 12 0 -8 79 -36 143 -14 32 -24
60 -22 63 3 2 23 -5 45 -16 27 -13 43 -28 47 -45 7 -27 63 -84 83 -85 6 0 15
-10 19 -22 4 -13 18 -40 32 -61 14 -20 25 -51 24 -67 0 -19 3 -28 10 -24 12 8
4 67 -19 136 -8 26 -12 56 -8 65 6 16 10 14 32 -11 l25 -30 -5 70 c-4 46 -3
61 3 44 5 -14 11 -60 15 -102 4 -43 11 -80 16 -84 10 -6 11 7 10 71 l-1 40 15
-30 c7 -16 30 -66 49 -110 26 -59 41 -82 58 -87 13 -3 17 -6 10 -7 -22 -2 5
-38 33 -45 14 -4 25 -12 25 -20 0 -7 7 -19 15 -26 17 -14 17 -15 -18 61 -16
36 -29 89 -22 89 2 0 12 -17 22 -37 9 -21 22 -42 29 -48 6 -5 14 -22 18 -37 4
-16 10 -28 15 -28 5 0 3 -21 -5 -47 -16 -53 -17 -66 -6 -59 4 2 14 1 22 -5 12
-7 10 -9 -7 -9 -13 0 -23 -5 -23 -11 0 -5 6 -7 13 -3 6 4 5 -1 -4 -11 -10 -9
-37 -20 -62 -22 -37 -5 -54 -1 -90 20 -24 14 -49 33 -57 41 -17 21 -74 22 -67
2 4 -10 1 -13 -8 -9 -18 6 -10 22 15 31 17 7 17 8 -2 32 -15 18 -22 21 -26 11
-4 -11 -6 -11 -13 0 -7 11 -9 11 -9 -2 0 -19 -20 -29 -55 -29 -31 0 -88 48
-80 68 4 11 0 13 -15 9 -11 -3 -18 -2 -16 2 6 9 -36 47 -47 43 -4 -1 -7 3 -5
11 4 15 -37 69 -45 60 -4 -3 -16 10 -27 30 -22 37 -91 79 -98 59 -2 -6 -11 -3
-23 9 -19 19 -19 19 -40 -2 -11 -11 -18 -27 -15 -35 7 -17 -10 -19 -18 -1 -3
6 -3 -3 0 -20 8 -44 -1 -41 -26 8 -12 23 -24 39 -26 36 -3 -3 -25 1 -49 9 -42
15 -79 45 -81 67 0 7 -2 19 -2 28 -1 9 -14 25 -29 34 -24 16 -27 16 -38 1 -7
-8 -16 -12 -20 -8 -5 4 -5 -2 -2 -13 6 -17 4 -17 -13 4 -23 27 -22 40 6 55 10
6 21 12 23 13 2 2 -1 9 -7 16 -7 8 -9 17 -5 20 3 4 -6 16 -20 28 -26 20 -39
47 -15 33 7 -4 8 -3 4 4 -4 7 -16 12 -27 12 -19 0 -23 8 -20 46 1 12 -4 24
-12 27 -7 3 -19 24 -26 48 -7 24 -22 64 -33 89 l-19 45 6 -55 c6 -52 25 -142
45 -203 4 -15 5 -25 0 -22 -12 7 -64 158 -85 245 -10 41 -24 81 -32 88 -7 7
-13 20 -13 27 0 8 -11 40 -25 71 -14 31 -22 61 -18 67 3 5 1 7 -5 3 -6 -3 -14
3 -17 15 -4 11 -8 19 -10 17 -4 -3 51 -203 59 -216 3 -4 1 -14 -3 -21 -6 -9
-13 6 -21 40 -15 64 -52 179 -74 232 -14 32 -19 35 -34 26 -14 -9 -26 -6 -56
12 -22 13 -34 25 -28 27 6 2 25 -7 41 -19 17 -12 34 -20 37 -16 7 7 -45 57
-58 57 -5 0 -8 8 -8 17 0 10 -28 46 -62 80 -34 35 -58 63 -52 63 6 0 46 -31
90 -69z m8275 -27 c-5 -16 -12 -36 -15 -44 -5 -11 0 -16 15 -17 12 -1 19 1 16
4 -7 7 11 26 40 41 14 8 24 9 28 2 3 -5 -3 -10 -14 -10 -21 0 -25 -19 -7 -31
12 -9 -16 -69 -31 -69 -7 0 -13 -4 -13 -10 0 -5 5 -10 10 -10 6 0 10 -7 10
-16 0 -8 -4 -12 -10 -9 -17 11 -32 -5 -19 -21 9 -11 8 -14 -5 -14 -18 0 -21
-17 -6 -40 8 -13 10 -13 10 2 0 9 3 18 8 20 8 4 48 83 57 114 3 12 15 32 26
45 l21 24 -4 -25 c-1 -14 -9 -31 -15 -38 -7 -7 -13 -20 -13 -28 0 -8 -4 -14
-10 -14 -5 0 -7 -7 -4 -15 4 -8 1 -21 -5 -29 -6 -7 -7 -17 -3 -21 4 -5 2 -5
-5 -1 -9 5 -11 -5 -10 -33 1 -22 -2 -37 -7 -34 -5 3 -17 -5 -28 -18 l-20 -24
5 26 c3 22 0 27 -20 27 -12 0 -23 -4 -23 -9 0 -5 -7 -9 -15 -9 -10 0 -15 10
-15 31 0 27 -2 30 -15 19 -9 -7 -14 -19 -11 -27 3 -7 1 -13 -4 -13 -14 0 -21
18 -10 25 6 4 5 11 -3 19 -6 8 -16 12 -20 9 -13 -8 -3 51 11 65 6 7 12 20 12
28 0 8 4 14 9 14 5 0 11 9 14 20 3 11 11 19 17 18 15 -4 49 47 65 98 3 9 8 15
10 12 3 -2 1 -18 -4 -34z m-8181 -456 c0 -5 5 -6 12 -2 7 5 8 3 3 -6 -4 -7 -2
-16 6 -21 8 -4 14 -12 14 -16 0 -4 13 -34 28 -67 15 -32 27 -62 27 -67 0 -5 4
-9 10 -9 5 0 16 -17 26 -37 9 -21 21 -48 27 -61 8 -16 7 -26 -2 -35 -9 -9 -13
-7 -17 11 -4 12 -11 22 -16 22 -5 0 -6 -4 -3 -10 3 -5 -1 -10 -9 -10 -9 0 -25
21 -37 50 -12 28 -25 50 -30 50 -12 0 -11 -2 5 -41 7 -19 16 -54 19 -79 5 -41
4 -43 -9 -26 -8 11 -14 15 -14 10 0 -5 14 -21 30 -36 30 -26 39 -48 20 -48 -5
0 -7 -7 -4 -15 4 -8 13 -15 21 -15 20 0 42 -30 35 -48 -4 -11 -15 -4 -39 24
-18 21 -33 44 -33 50 0 6 -9 19 -20 29 -11 10 -20 27 -20 37 0 20 -44 129 -81
201 -10 22 -19 47 -19 57 0 11 -4 21 -9 24 -6 4 -6 20 0 41 6 19 7 40 3 46 -3
6 3 5 14 -2 12 -7 19 -15 18 -17 -8 -7 33 -107 45 -111 7 -2 9 1 5 8 -8 12
-36 116 -36 131 0 5 7 7 15 4 8 -4 15 -10 15 -16z m-408 -13 c20 -14 39 -33
43 -42 3 -10 26 -34 51 -53 26 -19 51 -46 57 -60 33 -78 88 -190 97 -195 13
-8 13 -25 -1 -25 -5 0 -19 19 -29 43 -24 51 -56 94 -65 85 -4 -3 1 -20 10 -37
24 -47 10 -37 -18 13 -17 30 -20 43 -11 39 11 -4 8 5 -7 31 -11 20 -25 36 -30
36 -5 0 -9 8 -9 18 0 9 -14 28 -30 42 -57 47 -68 58 -71 69 -2 6 -16 12 -31
13 -30 3 -36 16 -16 36 16 16 18 16 60 -13z m1635 -97 c6 -29 7 -57 3 -62 -5
-5 3 -24 17 -43 76 -99 112 -182 155 -352 2 -8 -6 -14 -19 -16 -16 -1 -23 4
-23 16 0 10 -5 21 -11 24 -5 4 -8 12 -6 18 3 7 -5 22 -16 35 -16 17 -20 33
-18 68 1 25 -3 52 -9 60 -7 7 -10 14 -6 14 13 0 -68 137 -102 172 -19 21 -33
40 -30 44 4 3 14 -6 23 -20 27 -41 36 -30 12 14 -21 39 -21 42 -5 54 10 7 15
16 11 19 -3 4 -2 7 3 7 6 0 15 -24 21 -52z m438 11 c-16 -16 -17 -22 -6 -28
19 -12 4 -32 -17 -24 -15 6 -15 5 -3 -10 11 -14 9 -22 -18 -59 -17 -23 -31
-48 -31 -56 0 -8 -9 -27 -20 -42 -11 -15 -26 -52 -33 -81 -8 -30 -17 -47 -21
-40 -11 18 -25 4 -19 -20 4 -14 8 -17 13 -9 6 9 9 9 15 0 5 -8 1 -18 -10 -26
-31 -23 -43 -1 -44 84 -1 100 7 145 25 138 36 -14 86 38 134 139 23 48 40 69
49 60 2 -3 -4 -14 -14 -26z m3741 -371 c0 -24 -5 -46 -9 -49 -4 -3 -10 -19
-13 -35 -3 -16 -8 -31 -12 -34 -4 -3 -7 -12 -7 -20 0 -8 -10 -16 -22 -18 -13
-2 -23 -8 -23 -13 0 -6 5 -7 10 -4 6 3 10 1 10 -6 0 -8 -13 -10 -42 -5 -29 5
-40 4 -33 -3 6 -5 22 -11 37 -13 15 -2 31 -8 35 -12 4 -5 -5 -6 -22 -2 -29 6
-29 6 -10 -10 20 -16 19 -16 -6 -12 -18 3 -30 -1 -38 -15 -7 -10 -8 -16 -3
-13 6 3 12 3 15 -1 2 -5 2 -2 1 5 -2 6 6 12 17 12 11 0 18 -4 15 -9 -3 -5 1
-11 9 -15 8 -3 15 -13 15 -22 0 -10 -5 -14 -15 -10 -12 4 -14 2 -7 -11 11 -18
4 -53 -9 -53 -5 0 -7 -16 -4 -35 2 -20 0 -33 -5 -30 -5 3 -11 1 -14 -4 -3 -5
1 -11 9 -15 8 -3 15 -10 15 -16 0 -6 -4 -8 -10 -5 -5 3 -10 1 -10 -5 0 -6 -4
-9 -9 -6 -5 3 -11 -8 -13 -25 -3 -16 -1 -32 3 -35 5 -3 -1 -14 -12 -25 -11
-11 -17 -24 -14 -29 4 -6 -1 -13 -9 -16 -9 -3 -14 -10 -11 -14 3 -5 1 -11 -4
-15 -6 -3 -8 -12 -4 -20 6 -17 -8 -20 -23 -5 -7 7 -11 7 -11 -2 0 -7 -3 -24
-7 -37 -6 -15 -5 -21 2 -17 6 3 13 2 17 -4 3 -5 0 -10 -7 -10 -8 0 -6 -5 5
-11 14 -8 15 -14 5 -32 l-12 -22 -6 25 c-3 14 -12 25 -20 25 -9 0 -16 -11 -17
-25 -7 -68 -10 -75 -31 -78 -17 -3 -22 2 -22 17 0 23 16 29 22 9 3 -7 7 -6 11
5 3 9 2 17 -4 17 -6 0 -7 5 -3 11 4 7 9 26 11 42 1 17 8 34 14 38 6 4 9 11 6
16 -4 6 3 26 13 46 23 42 24 47 9 47 -5 0 -8 -4 -5 -9 4 -5 -3 -7 -14 -4 l-21
6 21 14 c11 8 20 21 20 29 0 8 7 17 15 20 11 5 13 10 5 19 -8 9 -8 14 0 17 6
2 12 20 13 41 1 20 5 37 10 37 4 0 7 -4 7 -10 0 -5 5 -10 11 -10 6 0 5 8 -4
20 -7 10 -12 37 -11 60 2 39 -6 47 -39 41 -5 -1 -5 3 -2 9 4 6 13 9 21 6 8 -3
14 -1 14 4 0 17 -17 19 -36 6 -10 -8 -25 -11 -33 -8 -10 4 -13 1 -9 -10 5 -13
3 -14 -17 -4 -16 7 -20 13 -12 18 9 6 9 8 0 8 -7 0 -13 4 -13 9 0 13 53 21 66
10 13 -10 44 -2 44 12 0 5 12 9 26 9 14 0 23 4 19 10 -3 6 -1 10 5 10 7 0 10
7 6 15 -3 8 -1 15 4 15 5 0 7 6 4 14 -3 9 -12 12 -22 9 -9 -4 -1 7 17 23 19
16 41 28 48 26 7 -2 13 2 13 8 0 5 -7 10 -15 10 -8 0 -15 7 -15 15 0 8 -4 15
-8 15 -5 0 -9 7 -9 15 0 8 4 15 9 15 4 0 8 6 8 14 0 13 27 31 42 28 4 -1 5 5
2 13 -4 9 0 15 10 15 12 0 14 -7 10 -30 -5 -24 -3 -30 11 -30 12 0 16 6 12 19
-3 12 0 18 7 15 7 -3 13 6 14 22 2 24 9 44 16 44 2 0 3 -19 2 -42z m-771 11
c-5 -15 -4 -19 4 -15 6 4 18 0 26 -8 14 -14 12 -18 -16 -45 -21 -21 -29 -36
-25 -49 6 -18 -17 -76 -35 -87 -5 -4 -7 -11 -3 -16 3 -6 -1 -18 -10 -28 -9
-10 -14 -25 -11 -34 4 -8 2 -18 -4 -22 -6 -3 -11 -14 -11 -24 0 -10 -6 -24
-14 -30 -7 -6 -16 -24 -19 -39 -9 -46 -59 -95 -95 -94 -17 0 -38 6 -45 13 -12
11 -11 18 5 45 10 17 29 36 43 42 14 6 25 16 25 22 0 17 32 48 46 43 23 -9 47
55 42 117 -4 51 -2 57 14 52 19 -4 19 -2 22 85 1 17 3 29 5 27 2 -2 15 12 28
31 27 40 38 45 28 14z m3135 -74 c0 -7 8 -19 17 -26 9 -8 14 -9 10 -3 -4 7 4
11 23 10 25 -1 29 -4 24 -21 -13 -43 -20 -48 -37 -30 -10 9 -17 13 -17 8 0 -5
5 -14 12 -21 13 -13 9 -14 -32 -16 -18 -1 -26 -7 -28 -23 -2 -13 1 -23 6 -23
6 0 5 -10 -1 -25 -7 -14 -15 -25 -19 -25 -5 0 -8 -5 -8 -11 0 -5 5 -7 10 -4 6
3 10 1 10 -4 0 -6 11 -11 24 -11 29 0 44 -30 21 -42 -8 -5 -15 -14 -15 -19 0
-6 5 -7 10 -4 14 9 12 -11 -2 -27 -7 -7 -15 -22 -16 -33 -2 -11 -8 -24 -13
-30 -5 -5 -9 -17 -9 -27 0 -10 -5 -18 -11 -18 -5 0 -7 5 -3 12 5 7 0 9 -14 6
-12 -4 -26 0 -33 9 -7 8 -8 13 -3 12 5 -1 20 -1 33 0 20 1 21 3 11 16 -7 8
-16 15 -21 15 -16 0 -59 -48 -59 -65 0 -10 -7 -27 -17 -37 -9 -11 -11 -18 -5
-18 20 0 13 -17 -8 -23 -17 -4 -19 -1 -14 31 3 21 8 44 11 52 3 8 7 27 9 43 1
15 9 49 18 75 8 26 17 61 21 79 3 17 13 37 21 44 8 6 14 22 14 34 0 13 7 26
16 29 11 4 13 10 6 23 -6 9 -6 24 -2 32 4 9 13 28 20 42 12 26 40 36 40 14z
m-1140 -143 c0 -5 11 -14 24 -20 13 -5 26 -20 29 -31 3 -12 1 -19 -3 -16 -14
9 -22 -35 -9 -51 10 -12 9 -13 -5 -8 -9 3 -16 10 -16 16 0 5 -5 6 -12 2 -7 -5
-5 -12 8 -22 18 -13 18 -14 -3 -7 -19 5 -23 2 -23 -16 0 -12 -11 -42 -25 -66
-14 -23 -23 -43 -20 -43 3 0 -2 -11 -10 -24 -9 -13 -15 -28 -14 -32 6 -34 -3
-74 -16 -74 -8 0 -15 -7 -15 -15 0 -8 4 -15 10 -15 5 0 6 -8 3 -17 -7 -17 -5
-16 42 3 6 3 12 -7 13 -21 1 -17 -3 -25 -14 -25 -14 0 -14 3 -4 15 10 12 10
15 -4 15 -11 0 -16 -9 -16 -27 0 -20 -3 -24 -9 -14 -7 11 -11 9 -20 -8 -12
-22 -6 -45 9 -36 4 3 11 -2 14 -11 4 -9 2 -13 -5 -8 -6 4 -15 0 -20 -7 -7 -11
-9 -10 -9 5 0 30 -14 9 -15 -24 -1 -19 3 -30 12 -30 21 0 42 -42 36 -72 -3
-16 -9 -28 -14 -28 -5 0 -8 3 -8 8 3 16 -1 32 -9 32 -4 0 -9 -17 -10 -37 -2
-29 0 -34 8 -23 8 12 9 10 7 -9 -2 -14 -9 -27 -15 -29 -7 -2 -12 -12 -12 -23
0 -10 -5 -19 -11 -19 -6 0 -8 7 -5 16 3 8 2 13 -3 10 -4 -3 -11 -24 -14 -47
-3 -23 -10 -46 -15 -51 -6 -6 -8 0 -5 16 5 27 -1 31 -41 26 -14 -1 -17 3 -12
15 3 9 6 21 6 26 0 5 5 9 11 9 6 0 8 -9 3 -22 -6 -20 -5 -21 10 -9 10 9 16 10
16 2 0 -6 4 -11 8 -11 13 0 8 48 -7 62 -10 10 -12 10 -7 1 5 -9 0 -13 -14 -13
-11 0 -23 -7 -26 -15 -11 -27 -23 -16 -20 18 4 45 23 77 34 59 8 -11 10 -11
15 2 4 10 1 16 -9 16 -8 0 -13 4 -10 8 4 7 9 25 20 81 1 7 13 20 27 28 13 8
16 12 7 9 -19 -6 -26 18 -8 29 6 4 8 11 4 16 -7 13 34 111 51 121 6 4 12 23
13 43 1 19 6 43 11 53 6 11 6 24 0 33 -5 7 -9 19 -9 24 0 6 4 4 8 -3 6 -9 12
-5 20 13 10 21 10 25 0 19 -10 -6 -10 -4 -2 7 15 19 27 82 14 74 -6 -3 -10 1
-10 10 0 11 5 15 14 12 8 -3 17 3 21 16 4 12 8 24 9 27 2 3 8 18 14 33 8 18
16 26 24 21 10 -6 11 -4 1 7 -16 16 -17 29 -3 29 6 0 10 -4 10 -8z m-510 -167
c13 -15 5 -39 -11 -30 -5 3 -6 -1 -3 -10 6 -14 8 -14 18 0 14 19 51 27 79 15
l22 -9 -22 0 c-16 -1 -21 -5 -16 -17 4 -11 8 -12 13 -4 5 8 11 6 20 -5 10 -12
10 -15 -1 -15 -10 0 -10 -3 -1 -12 14 -14 16 -32 3 -24 -5 3 -11 0 -14 -8 -4
-10 0 -12 14 -9 10 3 19 9 19 14 0 4 8 7 18 6 10 0 17 -9 17 -23 0 -12 -3 -20
-7 -17 -5 2 -8 -1 -8 -6 0 -6 5 -11 10 -11 6 0 10 -5 10 -11 0 -6 -7 -8 -15
-5 -9 3 -15 1 -14 -7 3 -28 -2 -39 -16 -33 -8 3 -15 1 -15 -5 0 -6 -7 -8 -16
-5 -8 3 -12 2 -9 -4 3 -6 3 -10 -2 -10 -4 0 -14 -4 -22 -9 -13 -8 -13 -12 -1
-26 12 -15 12 -19 -5 -32 -15 -11 -17 -17 -7 -20 10 -4 8 -11 -9 -29 -26 -27
-44 -22 -28 8 18 34 29 78 18 78 -5 0 -9 -4 -9 -10 0 -14 -27 -13 -36 2 -5 8
-2 9 9 5 10 -3 17 -3 17 2 0 5 -10 11 -22 15 -14 3 -19 9 -13 13 6 5 11 16 10
26 0 9 5 16 10 15 6 -2 9 -9 9 -15 -1 -7 2 -10 7 -7 5 3 9 -2 9 -11 0 -26 35
-13 36 13 1 17 -3 21 -17 17 -12 -4 -22 1 -30 17 -9 19 -9 21 2 11 7 -7 18
-13 24 -13 5 0 -5 13 -22 29 -18 16 -33 34 -33 40 0 5 -7 8 -15 5 -8 -4 -15
-1 -15 5 0 6 -7 11 -15 11 -22 0 -18 28 5 42 11 7 20 18 20 25 0 7 5 13 10 13
6 0 10 9 10 20 0 24 13 26 30 5z m129 -244 c12 -8 12 -14 1 -40 -7 -17 -10
-37 -7 -46 4 -8 2 -17 -3 -20 -6 -4 -10 -16 -10 -28 0 -12 -14 -74 -30 -137
-44 -170 -53 -200 -63 -200 -8 0 -5 34 12 125 5 28 7 52 5 54 -1 2 3 10 11 17
7 8 14 35 14 61 0 70 7 121 18 135 5 7 10 23 11 36 1 19 -3 22 -21 16 -12 -3
-19 -3 -14 1 4 5 17 9 30 10 12 2 21 8 20 14 -3 13 7 14 26 2z m2040 -347 c-6
-8 -9 -17 -6 -20 3 -3 1 -17 -4 -31 -5 -14 -12 -42 -15 -62 -3 -19 -13 -53
-21 -73 -13 -32 -18 -36 -30 -26 -11 9 -16 9 -24 -3 -5 -8 -9 -19 -9 -26 0 -6
-5 -15 -11 -18 -7 -5 -9 4 -7 26 4 40 -17 47 -45 15 -17 -21 -18 -20 -11 17 5
28 3 37 -7 37 -8 0 -3 6 11 13 14 7 26 21 28 31 2 10 12 32 22 49 l19 30 -1
-31 c-1 -17 -7 -33 -15 -36 -18 -7 -17 -42 2 -50 15 -5 35 27 35 57 0 7 7 23
16 35 9 13 14 32 11 43 -3 10 -2 19 3 19 4 0 7 8 6 18 -1 11 6 17 21 17 11 0
25 4 30 8 13 14 16 -23 2 -39z m-7324 4 c22 -6 51 -21 65 -33 14 -13 35 -22
48 -20 24 2 28 -5 12 -21 -16 -16 5 -61 53 -113 23 -25 44 -46 47 -45 3 0 13
-10 23 -22 11 -15 24 -21 34 -17 12 5 14 3 8 -6 -11 -19 13 -31 61 -31 40 0
64 -13 64 -36 0 -8 -10 -11 -27 -9 -16 2 -22 2 -16 -1 10 -4 9 -11 -2 -28 -19
-28 -67 -24 -109 9 l-28 23 28 -4 c16 -2 23 -1 17 2 -7 3 -13 12 -13 20 0 8
-7 14 -16 14 -8 0 -13 4 -10 9 3 4 -3 16 -14 26 -11 10 -17 21 -15 25 3 4 -20
33 -50 64 -30 31 -55 60 -55 65 0 5 -15 15 -32 22 -18 7 -49 29 -69 49 -20 19
-49 45 -65 58 -29 22 -29 22 -4 17 14 -3 43 -11 65 -17z m5175 -162 c0 -12 -6
-31 -14 -42 -10 -13 -11 -23 -4 -32 8 -9 7 -11 -5 -6 -14 5 -15 1 -7 -25 5
-17 5 -29 1 -27 -4 3 -12 -9 -19 -26 -10 -27 -9 -31 8 -35 11 -3 20 -10 20
-15 0 -6 -8 -7 -17 -4 -13 4 -12 1 5 -13 28 -25 28 -31 -4 -31 -14 0 -22 4
-19 10 3 6 -1 7 -10 3 -12 -4 -13 -8 -5 -13 15 -9 14 -17 -5 -36 -8 -9 -13
-20 -10 -25 3 -4 -2 -20 -11 -34 -15 -23 -15 -25 1 -25 12 0 15 -5 11 -16 -3
-9 -6 -20 -6 -26 0 -6 -6 -8 -14 -5 -20 8 -26 -24 -8 -45 13 -16 12 -17 -6
-13 -22 4 -58 -28 -48 -43 3 -6 -1 -12 -9 -16 -8 -3 -15 -1 -15 4 0 6 -7 10
-16 10 -10 0 -14 6 -11 14 3 8 -4 22 -15 33 -15 12 -19 13 -13 3 6 -12 5 -12
-5 -3 -7 6 -20 9 -29 6 -13 -4 -13 -2 2 7 9 6 17 17 17 23 0 13 -35 47 -60 59
-9 4 -3 7 17 7 25 1 31 -2 27 -14 -5 -11 -2 -13 10 -9 9 3 13 10 10 15 -3 5 3
6 12 2 10 -4 15 -2 11 4 -3 5 0 10 8 10 8 0 12 -4 9 -9 -3 -4 5 -4 18 1 13 4
29 6 36 4 6 -3 12 0 12 7 0 6 -5 8 -11 4 -7 -4 -10 -1 -7 7 3 8 12 13 22 11
19 -3 21 9 4 27 -7 6 -14 16 -14 22 -3 22 -5 23 -14 9 -8 -13 -10 -12 -10 3 0
11 8 17 21 17 11 0 18 4 14 9 -3 5 -1 12 5 16 6 4 8 10 5 15 -3 5 -15 0 -25
-10 -28 -28 -52 -26 -48 3 2 12 9 29 17 37 14 15 59 15 75 0 10 -10 47 20 40
32 -3 4 -2 14 2 20 5 7 9 19 9 28 1 8 8 32 15 53 12 31 12 40 1 46 -9 6 -5 10
14 15 22 6 25 9 14 22 -10 12 -9 13 5 8 9 -3 16 -16 16 -28z m2020 -126 c0
-11 -4 -20 -9 -20 -5 0 -8 -11 -7 -25 1 -23 2 -24 14 -8 7 10 16 30 19 45 5
27 29 55 38 46 3 -3 -2 -21 -10 -41 -19 -46 -19 -57 0 -57 8 0 15 5 15 10 0 6
6 10 14 10 22 0 23 -31 4 -70 -10 -19 -18 -42 -18 -52 0 -10 -4 -18 -8 -18 -5
0 -8 -17 -7 -37 l3 -38 49 3 c41 3 55 -2 91 -28 40 -29 54 -50 32 -50 -6 0
-10 -6 -9 -12 3 -26 -1 -39 -11 -33 -6 3 -12 -1 -15 -9 -3 -9 -8 -24 -12 -33
-3 -10 -5 -21 -5 -25 1 -5 -2 -8 -8 -8 -5 0 -10 12 -10 26 0 29 -13 57 -39 83
-17 17 -19 17 -34 -2 -14 -18 -17 -18 -23 -4 -3 9 -12 13 -20 10 -9 -3 -13
-11 -10 -19 3 -7 1 -14 -4 -16 -5 -2 -12 -15 -15 -31 -6 -21 -4 -26 7 -22 9 4
13 -2 13 -17 -2 -33 -15 -68 -25 -68 -5 0 -14 -16 -21 -35 -7 -20 -18 -34 -25
-31 -13 5 -29 -24 -38 -66 -4 -19 -12 -26 -26 -25 -19 1 -24 9 -21 35 1 6 -3
12 -9 12 -5 0 -10 5 -10 11 0 5 5 7 10 4 6 -3 10 -1 10 4 0 6 -10 11 -21 11
-24 0 -72 46 -64 61 4 5 -3 9 -14 9 -11 0 -23 4 -26 10 -3 6 1 10 9 10 23 0
20 27 -3 35 -21 6 -71 -3 -71 -14 0 -4 5 -12 12 -19 9 -9 6 -12 -16 -12 -24 0
-27 2 -16 15 7 8 9 15 4 15 -5 0 -2 5 6 10 12 8 13 11 1 19 -20 13 -3 18 64
19 88 1 88 1 82 16 -3 7 0 19 6 25 6 6 11 34 11 63 1 50 2 53 34 62 28 8 32
13 32 45 0 20 3 47 7 60 5 21 3 22 -17 16 -19 -6 -22 -4 -17 10 4 9 7 27 7 40
0 13 8 31 18 41 9 10 16 19 15 21 -8 10 -1 34 10 32 28 -3 61 2 52 9 -5 4 -11
13 -13 20 -2 10 2 10 18 2 11 -6 20 -20 20 -30z m-5210 -58 c0 -11 33 -12 40
-1 3 5 11 0 18 -11 9 -16 9 -19 -6 -19 -56 -1 -105 -10 -120 -23 -9 -8 -34
-23 -56 -33 -21 -11 -40 -26 -43 -32 -3 -7 -9 -13 -15 -13 -5 0 -26 -11 -46
-25 -20 -14 -30 -25 -22 -25 13 0 13 -1 0 -10 -12 -8 -12 -10 2 -15 9 -4 19
-13 22 -21 4 -11 2 -12 -14 -4 -25 14 -33 13 -56 -6 -16 -13 -16 -15 -1 -10
21 7 22 2 1 -19 -13 -13 -19 -14 -25 -4 -4 8 -11 10 -15 6 -4 -3 -1 -13 6 -22
7 -8 10 -15 7 -15 -3 0 -13 -3 -23 -7 -14 -5 -16 -3 -11 11 10 24 -13 9 -51
-35 -37 -42 -40 -54 -12 -39 11 6 26 8 32 4 8 -5 9 -2 5 9 -4 11 -1 17 9 17 9
0 12 -5 8 -11 -3 -6 0 -15 7 -20 18 -11 52 -12 45 0 -5 7 13 8 71 2 7 0 10 -8
7 -16 -4 -9 -1 -15 7 -15 10 0 10 -3 1 -12 -10 -10 -15 -10 -21 1 -6 10 -10
10 -16 1 -5 -8 -12 -7 -25 5 -13 12 -20 13 -25 5 -4 -7 -2 -16 6 -20 8 -6 1
-10 -22 -12 -24 -2 -34 -8 -33 -20 1 -9 -4 -14 -11 -12 -7 3 -16 1 -20 -5 -3
-6 -11 -11 -17 -11 -6 0 -4 8 5 18 10 10 17 23 17 29 0 6 6 14 13 16 7 4 6 6
-4 6 -9 1 -22 -12 -29 -29 -7 -16 -18 -35 -26 -41 -16 -13 -19 -33 -4 -24 11
7 12 0 4 -32 -4 -13 -13 -23 -20 -23 -8 0 -14 2 -14 4 0 2 -3 12 -7 22 -4 12
-3 15 6 10 7 -5 10 -2 9 6 -5 20 -25 38 -44 38 -14 0 -15 3 -6 12 16 16 15 31
-2 25 -10 -4 -12 0 -9 14 7 26 23 35 23 12 0 -12 8 -6 25 19 14 20 25 41 25
45 0 5 27 38 59 74 64 70 182 165 253 204 24 13 42 29 40 35 -1 6 2 9 7 5 6
-3 20 4 31 15 11 11 25 18 30 15 6 -4 10 -1 10 4 0 6 5 11 10 11 6 0 10 -4 10
-8z m2056 -152 c1 -16 -2 -27 -6 -25 -5 3 -11 1 -15 -5 -3 -6 2 -13 12 -17 19
-7 33 -22 33 -37 0 -5 -8 -2 -17 5 -11 10 -14 10 -9 2 4 -9 1 -13 -9 -13 -10
0 -15 -5 -12 -14 3 -7 -3 -27 -14 -45 -19 -31 -39 -41 -39 -20 0 8 -5 7 -15
-1 -13 -11 -18 -10 -30 6 -9 12 -14 14 -15 6 0 -18 26 -43 35 -34 5 4 5 2 1
-5 -7 -13 -36 -7 -36 8 0 4 -8 6 -17 3 -11 -4 -14 -2 -8 3 6 4 11 24 12 43 1
19 2 35 3 35 1 0 3 11 4 24 3 22 2 22 -10 7 -14 -19 -55 -18 -61 1 -3 7 10 14
29 18 18 3 42 8 53 10 11 2 28 4 38 4 10 1 15 6 12 11 -9 14 9 12 24 -2 10
-11 11 -9 5 6 -6 16 -4 18 9 13 9 -3 17 -2 17 3 0 6 -6 10 -12 10 -7 0 -2 7
12 14 14 8 25 14 25 15 0 1 1 -12 1 -29z m-1403 -37 c-3 -10 -3 -15 1 -11 14
12 35 -15 24 -30 -8 -9 -7 -11 6 -6 9 3 16 1 16 -4 0 -7 -21 -10 -55 -8 -40 2
-55 -1 -55 -10 0 -7 -13 -21 -29 -30 -17 -10 -27 -22 -24 -27 3 -5 10 -3 15 4
8 11 9 11 5 -1 -2 -8 -15 -15 -28 -16 -35 -1 -89 -15 -95 -25 -3 -5 -11 -9
-17 -9 -8 0 -8 3 1 9 8 4 14 12 15 17 1 5 7 8 14 6 6 -1 14 2 18 8 3 5 -1 10
-9 10 -9 0 -16 5 -16 10 0 7 7 7 20 0 22 -12 44 -5 34 11 -3 5 -10 7 -16 3 -6
-4 -8 3 -6 17 2 18 10 25 31 27 15 2 27 9 27 18 0 8 5 14 11 14 5 0 7 5 4 10
-4 6 7 8 30 4 23 -3 35 -2 31 4 -4 6 2 8 14 5 11 -3 20 0 20 6 0 6 4 11 10 11
5 0 7 -8 3 -17z m1257 -183 c-11 -8 -7 -9 15 -4 59 13 115 13 115 1 0 -7 4 -6
10 3 7 11 10 11 10 2 0 -14 31 -12 43 3 6 7 10 6 13 -1 3 -8 24 -10 62 -7 61
6 90 7 166 4 36 -1 47 -4 43 -15 -4 -10 1 -12 16 -9 18 4 19 3 7 -6 -19 -13 0
-14 20 -1 13 8 11 11 -7 16 -13 4 -21 10 -18 14 7 12 45 0 45 -14 0 -7 -14
-25 -30 -41 -30 -29 -31 -29 -36 -8 -6 21 -7 22 -29 5 -12 -9 -21 -22 -18 -28
6 -17 -29 -27 -39 -12 -6 10 -8 10 -8 1 0 -7 -4 -13 -10 -13 -5 0 -10 9 -10
20 0 11 -5 20 -11 20 -6 0 -9 -7 -5 -15 3 -9 0 -15 -10 -15 -8 0 -13 4 -10 9
3 5 -3 11 -13 14 -11 3 -22 -1 -25 -9 -3 -8 -15 -11 -30 -8 -21 3 -24 1 -19
-12 4 -12 3 -15 -5 -10 -8 4 -12 0 -12 -10 0 -17 -1 -16 -13 1 -8 10 -19 15
-26 11 -6 -4 -14 0 -17 8 -3 9 -12 16 -20 16 -8 0 -15 5 -15 10 -1 6 -2 14 -3
19 -2 18 -15 23 -41 17 -28 -7 -33 -23 -8 -28 15 -3 15 -4 0 -19 -11 -12 -13
-19 -5 -27 8 -8 5 -11 -11 -9 -11 1 -21 7 -21 13 0 6 -13 14 -29 16 -24 4 -31
0 -40 -21 -10 -23 -10 -24 2 -8 8 9 18 17 22 17 4 0 2 -7 -5 -15 -6 -8 -8 -20
-4 -26 5 -9 2 -10 -10 -6 -10 4 -25 7 -34 7 -10 0 -13 3 -7 8 13 9 16 62 3 62
-5 0 -6 -4 -3 -10 3 -5 1 -10 -5 -10 -8 0 -10 9 -6 25 4 14 2 25 -4 25 -5 0
-10 -5 -10 -10 0 -6 -10 -1 -22 10 -13 12 -24 16 -26 11 -2 -6 -10 -4 -19 5
-25 24 1 35 74 32 33 -2 59 0 56 5 -2 4 6 7 19 7 19 0 20 -2 8 -10z m705 -1
c6 0 22 2 38 5 18 4 27 2 27 -6 0 -10 2 -10 9 0 7 11 9 10 14 -2 5 -11 -1 -20
-18 -28 -14 -6 -27 -23 -30 -39 -4 -16 -10 -29 -15 -29 -5 0 -15 -2 -23 -5
-10 -4 -14 3 -15 30 -1 20 2 34 7 31 4 -3 8 1 8 9 0 19 -17 8 -26 -19 -5 -13
-4 -24 3 -28 6 -4 1 -11 -14 -17 -18 -7 -20 -10 -7 -10 9 -1 17 -6 17 -12 0
-18 -24 -4 -37 21 -9 17 -9 28 -1 37 17 21 0 15 -22 -7 -18 -18 -18 -20 -2
-21 14 0 14 -2 -3 -9 -28 -12 -75 -13 -55 -1 8 6 19 7 25 3 5 -3 4 2 -4 11 -7
9 -11 24 -7 32 3 8 1 15 -4 15 -5 0 -12 -11 -16 -25 -3 -14 -10 -25 -15 -25
-5 0 -3 13 6 30 8 16 15 32 15 35 0 3 0 9 0 14 0 12 43 18 95 13 22 -1 45 -3
50 -3z"/>
<path d="M6107 2690 c11 -19 24 -57 27 -85 4 -27 16 -76 27 -108 10 -32 18
-70 17 -85 -1 -15 2 -34 7 -41 5 -10 4 -12 -3 -7 -17 10 -15 1 8 -36 l20 -33
0 28 c0 15 5 27 11 27 19 0 69 -58 69 -79 0 -27 20 -39 60 -37 32 1 35 5 38
34 2 17 -4 42 -12 54 -9 12 -16 35 -16 50 0 26 -27 64 -38 53 -3 -3 0 -11 6
-17 17 -17 15 -28 -3 -22 -8 4 -15 12 -15 19 0 22 -56 136 -63 129 -4 -4 -3
-12 2 -18 4 -6 11 -29 14 -51 10 -64 -10 -18 -32 75 -21 87 -31 109 -31 69 0
-26 -16 -57 -24 -48 -3 3 -7 19 -9 35 -4 37 -23 72 -55 104 l-26 25 21 -35z"/>
<path d="M2618 3549 c-15 -4 -30 -4 -34 0 -4 3 -4 0 0 -7 5 -7 20 -12 36 -10
15 1 34 -3 41 -9 8 -6 26 -14 40 -18 23 -6 56 -42 46 -51 -2 -2 -16 2 -30 9
-15 8 -24 17 -20 20 3 4 -3 7 -15 7 -11 0 -24 5 -27 11 -4 6 -13 8 -21 5 -8
-3 -14 0 -14 6 0 6 -2 9 -5 6 -13 -12 9 -38 32 -38 22 0 24 -3 18 -31 -5 -21
-4 -29 3 -25 7 4 9 -1 7 -13 -2 -11 3 -25 10 -31 8 -6 12 -17 9 -25 -3 -7 3
-16 15 -20 12 -3 21 -11 21 -16 0 -12 21 -11 40 1 13 8 13 11 1 22 -10 9 -12
10 -7 1 5 -9 2 -11 -9 -6 -13 4 -14 7 -3 14 10 6 8 13 -10 29 -12 11 -22 25
-22 30 0 4 -3 16 -6 24 -5 12 -2 15 10 10 9 -3 16 -15 16 -25 0 -12 5 -16 14
-13 10 4 16 -3 19 -18 2 -13 3 -5 0 16 -2 21 -13 60 -24 86 -18 42 -25 48 -62
57 -24 5 -55 6 -69 2z"/>
<path d="M2938 3513 l4 -38 -23 21 c-26 22 -72 20 -77 -4 -1 -8 1 -11 5 -9 5
3 8 -42 8 -98 0 -73 4 -108 13 -117 11 -11 16 -10 27 6 8 10 16 24 19 30 3 6
13 0 25 -14 11 -14 21 -22 22 -17 1 4 2 15 3 25 1 9 6 28 10 40 4 13 3 51 -4
85 -17 95 -18 101 -19 115 -1 6 -5 12 -9 12 -4 0 -6 -17 -4 -37z"/>
<path d="M13995 2950 c-14 -22 -25 -44 -25 -50 0 -5 -3 -10 -7 -10 -5 0 -16
-14 -25 -31 -10 -17 -23 -27 -29 -23 -8 4 -7 9 2 15 7 4 11 10 8 14 -9 9 -61
-44 -54 -55 3 -6 -1 -13 -9 -16 -9 -3 -13 -10 -10 -15 3 -5 1 -9 -4 -9 -5 0
-14 -12 -20 -26 -7 -14 -8 -23 -2 -19 5 3 10 -1 10 -9 0 -10 -9 -16 -24 -16
-16 0 -26 -7 -29 -22 -4 -12 -4 -24 -2 -27 3 -2 5 1 5 7 0 7 7 12 15 12 20 0
9 -26 -25 -59 -15 -14 -25 -31 -23 -37 2 -7 -4 -19 -13 -28 -9 -9 -14 -19 -11
-22 9 -9 27 6 27 22 0 8 5 14 10 14 6 0 10 7 10 15 0 8 4 15 9 15 5 0 14 14
21 30 7 17 16 30 21 30 5 0 9 4 9 10 0 17 33 49 44 43 6 -3 8 -3 4 2 -12 12
11 35 29 28 12 -5 12 -7 1 -14 -11 -7 -11 -9 0 -9 8 0 16 9 19 21 4 13 11 18
20 15 9 -4 35 12 65 39 48 43 76 51 64 18 -6 -13 -3 -13 18 1 14 9 33 16 42
16 15 0 16 2 2 18 -8 9 -18 25 -21 35 -4 9 -13 17 -22 17 -8 0 -15 5 -15 10 0
9 23 14 58 13 15 -1 15 4 0 21 -11 11 -17 11 -35 -1 -20 -13 -23 -13 -23 -1 0
13 -43 58 -55 58 -3 0 -16 -18 -30 -40z"/>
<path d="M3312 2808 c-23 -28 -12 -118 14 -118 7 0 11 -6 9 -12 -3 -7 10 -22
27 -33 48 -28 52 -30 45 -11 -4 10 -3 15 4 11 5 -4 7 -15 4 -26 -5 -15 -1 -19
17 -19 55 1 60 40 11 95 -18 20 -33 40 -33 43 0 11 -68 82 -78 82 -5 0 -14 -6
-20 -12z"/>
<path d="M3446 2514 c-4 -9 0 -24 7 -33 8 -9 12 -22 9 -30 -3 -8 0 -11 6 -7
13 8 52 -23 52 -42 0 -9 -8 -7 -26 7 -15 12 -32 21 -40 21 -7 0 -15 6 -17 13
-7 16 -46 -31 -44 -55 1 -9 5 -14 9 -12 11 7 10 -10 -2 -22 -5 -5 -11 -32 -14
-59 l-4 -50 19 23 c19 24 49 27 56 5 3 -7 -4 -10 -19 -7 l-23 5 22 -10 c15 -7
21 -16 17 -26 -7 -18 -16 -19 -33 -2 -8 7 -15 8 -17 2 -14 -34 -23 -40 -44
-27 -24 14 -33 16 -25 2 3 -5 -3 -18 -14 -29 -17 -17 -18 -21 -5 -32 10 -8 18
-9 22 -3 10 15 42 25 42 13 0 -6 4 -8 9 -5 5 3 11 -3 14 -14 6 -23 -3 -26 -21
-8 -9 9 -12 8 -12 -4 0 -9 6 -18 13 -21 6 -2 0 -2 -15 0 -14 2 -29 -1 -33 -6
-3 -6 -11 -11 -16 -11 -6 0 -7 5 -3 11 9 15 -36 1 -57 -17 -8 -8 -22 -14 -30
-14 -12 0 -11 -2 1 -10 13 -8 13 -10 -1 -10 -19 0 -52 -34 -42 -43 6 -7 -11
-11 -36 -8 -7 2 -10 -2 -7 -7 3 -6 0 -13 -6 -15 -7 -3 -3 -6 10 -6 27 -1 38 2
35 10 -1 4 14 2 34 -4 28 -9 37 -9 41 1 2 7 11 12 20 11 11 0 12 -2 5 -6 -20
-7 -15 -19 7 -20 13 -1 18 2 14 9 -5 7 -2 8 5 4 23 -14 134 -14 148 -1 7 8 9
15 4 17 -5 2 -4 14 2 28 l10 25 10 -35 c13 -44 10 -41 46 -46 25 -4 36 0 51
18 18 21 19 21 20 4 0 -11 3 -16 7 -12 11 11 14 46 4 46 -5 0 -17 3 -27 7 -12
4 -15 3 -10 -5 4 -7 2 -12 -6 -12 -10 0 -10 -2 1 -9 17 -11 -1 -23 -23 -15
-18 7 -22 24 -5 24 8 0 8 5 -1 15 -7 8 -16 15 -21 15 -5 0 -9 -7 -9 -15 0 -22
-17 -18 -23 5 -5 18 -11 20 -55 14 -31 -4 -52 -2 -56 5 -5 7 3 9 22 5 17 -3
32 -1 36 5 4 5 13 8 21 4 9 -3 15 1 15 10 0 24 -20 31 -34 11 -8 -10 -18 -14
-25 -10 -9 6 -8 11 5 21 11 7 15 19 11 29 -4 10 -3 15 3 11 6 -3 10 2 11 12 0
12 4 9 11 -9 5 -16 17 -28 25 -28 10 0 14 -6 10 -20 -3 -11 -1 -20 5 -20 6 0
8 20 5 50 -3 28 -1 50 4 50 5 0 9 -5 9 -10 0 -7 6 -7 20 0 11 6 20 18 20 26 0
9 6 14 13 11 6 -2 11 -11 9 -21 -2 -9 2 -16 8 -16 6 0 9 4 6 8 -2 4 -1 14 3
21 5 7 8 0 9 -20 0 -18 7 -36 14 -40 7 -5 9 -9 4 -9 -5 0 -1 -9 10 -21 17 -19
19 -19 25 -2 4 13 -1 23 -20 35 -25 17 -25 18 -3 18 12 0 22 5 22 10 0 6 -9
10 -20 10 -23 0 -24 7 -10 47 9 25 9 26 -4 9 -14 -18 -36 -15 -36 5 0 6 4 8 9
4 5 -3 12 -1 16 5 3 5 20 7 38 3 l32 -6 -22 20 c-23 20 -34 91 -13 78 6 -3 10
-18 10 -33 1 -26 1 -26 13 -7 20 35 127 21 127 -16 0 -5 -4 -9 -10 -9 -5 0
-10 7 -10 15 0 8 -4 15 -10 15 -15 0 -12 -27 5 -44 14 -13 12 -15 -17 -18
l-33 -4 28 -12 c17 -7 27 -19 27 -32 0 -12 5 -31 12 -43 11 -21 11 -21 19 -2
4 11 5 39 2 63 -5 36 -2 46 18 63 l23 20 -22 6 c-12 3 -20 9 -17 13 7 11 -94
96 -110 92 -6 -1 -23 8 -36 20 -46 43 -109 56 -109 22 0 -19 -10 -18 -26 3 -7
10 -9 22 -5 28 4 5 0 18 -11 28 -10 9 -18 12 -18 5 0 -6 -8 -4 -19 6 -17 16
-19 16 -25 0z"/>
<path d="M4107 1934 c3 -7 8 -13 11 -12 20 2 25 -3 12 -12 -13 -8 -11 -11 8
-16 12 -4 22 -9 23 -13 6 -46 4 -59 -8 -49 -7 6 -10 14 -7 19 9 16 -3 10 -17
-8 -8 -9 -9 -14 -3 -10 6 4 19 -2 29 -13 10 -11 24 -20 31 -20 7 0 16 -5 20
-12 5 -7 3 -8 -7 -3 -12 8 -12 6 -1 -8 8 -9 11 -25 7 -37 -3 -11 -3 -20 2 -20
4 0 13 -11 19 -24 10 -21 9 -24 -5 -19 -14 4 -14 4 0 -6 17 -11 24 -77 9 -86
-5 -3 -7 0 -4 8 3 8 -1 17 -9 20 -21 8 -29 -42 -11 -61 16 -16 14 -34 -4 -40
-7 -2 -10 2 -6 11 3 10 -3 20 -16 27 -11 6 -18 15 -15 21 4 5 2 9 -3 9 -6 0
-8 9 -5 20 4 15 0 20 -16 20 -11 0 -21 5 -21 11 0 5 5 7 12 3 8 -5 9 -2 5 9
-4 11 -1 17 8 17 8 0 15 5 15 10 0 6 -12 10 -26 10 -21 0 -25 -4 -20 -17 6
-17 5 -16 -8 0 -8 10 -23 19 -35 20 -12 1 -17 5 -12 10 5 5 7 16 4 23 -8 21
-35 -11 -33 -39 3 -35 1 -47 -10 -47 -5 0 -10 9 -10 20 0 11 -7 20 -15 20 -8
0 -15 7 -15 15 0 8 -5 14 -11 12 -6 -1 -14 4 -16 11 -3 6 0 12 6 12 6 0 11 5
11 11 0 6 -9 8 -20 4 -14 -4 -20 -2 -20 9 0 8 4 17 9 20 5 3 7 16 4 29 -4 17
-2 19 6 7 5 -8 12 -12 16 -9 3 3 -4 16 -14 28 -11 13 -19 28 -17 34 1 7 1 9
-1 6 -2 -4 -13 -5 -23 -2 -23 6 -26 -7 -7 -26 10 -10 9 -11 -5 -6 -13 5 -15 2
-11 -14 3 -12 11 -21 19 -21 7 0 16 -5 19 -10 4 -6 1 -9 -6 -8 -7 2 -15 -5
-17 -16 -2 -11 0 -16 7 -12 6 4 11 2 11 -3 0 -6 -5 -11 -11 -11 -11 0 -7 -59
5 -79 4 -6 2 -11 -5 -11 -8 0 -8 -4 1 -15 10 -12 10 -19 2 -27 -7 -7 -12 -23
-12 -36 0 -17 -4 -23 -15 -18 -8 3 -15 1 -15 -4 0 -6 7 -10 15 -10 8 0 15 -7
15 -15 0 -12 -4 -13 -18 -6 -12 6 -23 4 -39 -9 -18 -14 -20 -19 -8 -24 16 -6
21 -36 6 -36 -5 0 -8 -8 -7 -17 2 -11 -23 -44 -60 -82 -65 -66 -82 -96 -24
-41 18 17 35 28 38 25 3 -2 12 1 20 7 26 22 55 19 77 -6 l22 -25 23 31 24 32
8 -29 c5 -20 3 -32 -5 -37 -8 -5 -6 -8 7 -8 14 0 17 6 14 23 -4 20 -1 24 24
24 19 0 24 -3 16 -9 -9 -5 -7 -8 7 -8 31 0 96 -26 106 -41 14 -22 10 -30 -8
-20 -21 11 -75 6 -103 -9 -11 -6 -20 -20 -20 -31 0 -11 -4 -17 -10 -14 -5 3
-15 -6 -22 -20 -9 -21 -9 -31 1 -47 7 -11 8 -17 2 -13 -6 3 -11 1 -11 -4 0 -6
5 -11 10 -11 6 0 10 -7 10 -15 0 -8 -5 -14 -12 -12 -16 3 -28 -60 -22 -113 5
-38 10 -46 27 -48 16 -1 18 1 8 7 -28 17 27 126 63 126 32 0 27 -32 -7 -49
-31 -14 -63 -53 -54 -63 3 -2 26 -5 51 -5 26 0 44 -4 40 -9 -3 -5 2 -9 12 -9
13 0 15 -6 10 -32 -3 -18 -1 -40 4 -48 8 -12 10 -9 10 13 0 16 5 27 13 27 8 0
13 10 13 21 -1 12 5 24 13 27 9 3 11 -1 6 -17 -4 -12 -2 -21 4 -21 10 0 15 14
12 33 -1 4 13 5 30 2 20 -4 28 -2 24 5 -4 6 -1 18 7 27 9 12 10 17 1 20 -7 2
-2 13 13 28 25 25 32 55 12 55 -6 0 -8 3 -5 7 9 8 48 -27 42 -38 -3 -4 2 -14
10 -22 8 -9 15 -31 14 -49 -1 -31 -1 -32 -10 -8 l-8 25 2 -24 c1 -14 9 -25 20
-27 9 -1 14 2 11 7 -13 21 49 -2 89 -32 56 -44 66 -53 45 -46 -11 4 -15 2 -12
-6 7 -18 148 -108 247 -158 121 -60 87 -63 -67 -6 -34 13 -42 13 -54 1 -8 -9
-22 -12 -34 -8 -11 3 -27 7 -36 8 -8 2 -20 10 -27 19 -7 9 -17 17 -24 17 -6 0
-11 5 -11 10 0 6 27 10 62 10 l63 0 -70 41 c-139 81 -206 109 -110 45 22 -14
33 -26 26 -26 -8 0 -3 -10 13 -23 l26 -23 -20 -22 c-19 -21 -20 -22 -1 -31 10
-6 22 -7 26 -3 3 4 12 0 18 -8 17 -21 63 -50 82 -50 8 0 15 -9 15 -19 0 -14 6
-19 20 -16 12 2 25 -4 34 -16 7 -11 17 -19 22 -18 21 4 35 -2 29 -11 -3 -5 0
-8 7 -5 38 12 98 14 98 2 0 -8 4 -7 10 3 5 8 10 10 10 4 0 -8 85 -12 110 -5 3
1 -13 13 -35 26 -31 20 -35 25 -19 25 12 0 27 -7 34 -15 7 -8 19 -15 26 -15 8
0 14 -4 14 -10 0 -5 7 -10 15 -10 19 0 20 34 0 50 -8 6 -24 13 -37 14 -45 5
-183 59 -198 77 -3 4 -15 9 -27 13 -21 7 -34 28 -15 25 20 -3 52 2 52 9 0 6
-49 37 -110 67 -14 7 -38 16 -54 19 -23 6 -27 4 -23 -8 4 -9 4 -16 1 -16 -12
0 -54 33 -55 44 0 6 -28 31 -62 56 -41 30 -63 55 -69 74 -11 42 -1 49 30 20
15 -14 59 -46 97 -71 39 -25 97 -67 130 -92 33 -26 80 -58 105 -72 88 -50 105
-46 28 7 -24 16 -46 33 -50 39 -4 5 -8 7 -8 2 0 -4 -22 9 -50 28 -27 19 -53
35 -57 35 -5 0 -21 11 -38 25 l-30 24 38 1 c26 0 36 -4 31 -12 -4 -7 -3 -8 5
-4 6 4 32 -6 57 -23 71 -49 63 -36 -23 32 -43 34 -98 81 -123 104 -107 98
-127 114 -154 120 -28 6 -28 7 -10 21 13 10 14 13 3 9 -10 -3 -33 11 -60 36
-57 53 -62 90 -15 118 17 10 40 19 51 18 l20 0 -20 -9 c-17 -6 -14 -9 17 -15
21 -4 35 -11 32 -16 -3 -5 2 -9 10 -9 9 0 16 4 16 10 0 5 7 7 15 4 8 -4 15 -1
15 6 0 7 -8 10 -20 7 -21 -5 -44 15 -32 28 4 5 -1 5 -10 2 -10 -3 -20 -2 -23
3 -4 6 6 10 20 10 14 0 24 4 21 9 -8 12 -55 20 -62 10 -8 -14 -21 -10 -21 5 0
12 10 14 41 9 40 -5 60 -19 50 -35 -3 -4 6 -12 19 -17 33 -13 44 -31 24 -43
-14 -7 -11 -13 16 -42 18 -19 36 -31 41 -28 5 3 6 0 2 -7 -5 -8 -13 -7 -29 4
-12 8 -25 15 -30 15 -12 0 106 -138 118 -139 6 -1 16 -10 23 -21 7 -12 17 -18
22 -15 5 3 15 -3 22 -13 18 -25 79 -52 98 -44 19 9 41 9 58 -1 7 -5 12 -3 12
5 1 7 9 3 20 -10 11 -13 23 -21 28 -18 5 3 9 -2 9 -11 0 -10 13 -26 29 -38 16
-11 41 -32 55 -47 15 -16 31 -28 36 -28 4 0 4 4 -2 8 -5 4 -21 19 -34 34 -33
37 -3 31 43 -10 34 -29 96 -68 96 -59 0 3 20 -15 44 -39 31 -32 51 -44 73 -44
16 0 35 -6 41 -12 7 -7 41 -13 80 -14 81 -1 139 -13 121 -25 -10 -6 -6 -11 14
-18 15 -6 27 -15 27 -21 0 -5 5 -10 11 -10 8 0 8 5 -1 15 -16 19 -10 19 26 0
16 -8 55 -17 87 -21 55 -6 67 -13 33 -18 -9 -1 -26 -12 -39 -24 -32 -30 -102
-31 -154 -3 -19 9 -22 9 -17 -2 3 -8 16 -19 30 -26 14 -6 23 -15 20 -19 -4 -7
124 -8 351 -1 62 1 116 0 119 -4 4 -4 12 -7 18 -7 6 0 4 5 -4 10 -13 8 -13 10
0 10 10 0 7 5 -8 16 -12 8 -27 12 -32 9 -6 -3 -10 0 -10 8 0 26 -45 58 -74 53
-23 -4 -26 -3 -15 10 17 21 5 28 -15 9 -9 -9 -16 -13 -16 -8 0 5 5 14 11 20 7
7 6 15 -5 25 -8 9 -12 18 -9 22 12 12 23 6 23 -14 0 -11 5 -20 10 -20 6 0 10
9 10 20 0 15 7 20 29 20 30 0 30 0 29 60 -1 34 4 65 11 74 17 20 -7 79 -27 71
-8 -3 -30 -5 -50 -5 -28 0 -33 -3 -22 -10 8 -5 11 -10 5 -10 -5 0 5 -10 23
-21 36 -24 42 -53 12 -69 -11 -6 -20 -18 -20 -26 0 -8 5 -12 10 -9 12 7 12 -2
0 -30 -7 -17 -9 -17 -9 -2 -1 9 -5 17 -11 17 -5 0 -10 -8 -10 -17 0 -15 -2
-16 -9 -3 -6 8 -8 17 -5 21 2 4 0 10 -6 14 -5 3 -10 -3 -10 -14 0 -12 -6 -21
-14 -21 -7 0 -20 -8 -27 -17 -8 -10 -9 -14 -2 -10 6 4 14 3 18 -3 3 -5 2 -10
-3 -10 -5 0 -15 -11 -22 -25 -7 -13 -16 -22 -20 -20 -4 3 -29 7 -56 10 -77 8
-143 27 -149 42 -2 8 0 11 5 8 6 -3 10 -2 10 3 0 5 21 6 47 2 26 -4 55 -6 63
-5 8 2 27 4 43 4 47 2 29 21 -19 21 -54 0 -197 46 -304 98 -40 20 -85 35 -100
34 -14 -2 -37 -4 -52 -6 -15 -2 -25 0 -23 4 3 4 -6 10 -20 12 -13 3 -26 0 -29
-6 -3 -7 -5 -7 -5 2 -1 6 -7 12 -14 12 -7 0 -13 9 -13 21 0 19 1 19 13 3 7
-10 13 -13 13 -7 0 15 138 6 184 -13 16 -6 18 -4 13 9 -5 15 -3 16 12 7 14 -7
21 -6 24 3 4 9 7 9 15 -1 10 -15 71 -13 69 3 -2 11 61 9 77 -3 16 -12 64 -13
71 -2 4 7 13 6 27 -1 13 -7 18 -7 14 0 -4 5 3 15 14 21 11 6 20 7 20 2 0 -9
22 -19 61 -28 25 -5 36 46 13 63 -9 7 -20 10 -25 8 -4 -3 -9 0 -11 7 -6 17
-75 11 -143 -12 -61 -21 -123 -28 -95 -10 10 6 -13 8 -67 7 -62 -2 -79 -5 -71
-14 26 -32 -88 -22 -132 11 -13 10 -13 9 0 -8 14 -18 13 -19 -3 -13 -11 4 -30
10 -43 13 -13 3 -24 10 -24 14 0 4 -7 11 -16 14 -9 4 -13 2 -8 -5 4 -7 1 -10
-7 -7 -8 3 -13 11 -12 19 2 8 -17 27 -42 42 -25 16 -45 33 -45 39 0 5 -4 7 -9
3 -5 -3 -13 0 -16 5 -4 6 -25 25 -47 41 -23 16 -37 29 -33 29 5 0 -7 14 -25
30 -19 17 -40 28 -48 25 -7 -2 -11 -1 -8 3 6 9 -28 65 -35 58 -3 -3 -10 3 -16
14 -24 37 29 -2 119 -89 48 -46 96 -89 106 -95 11 -6 38 -23 60 -38 23 -16 50
-28 61 -28 11 0 23 -4 26 -10 3 -5 11 -10 17 -10 6 0 -2 11 -18 25 -15 13 -25
27 -22 30 3 4 17 -4 31 -17 43 -40 56 -48 72 -48 8 0 15 4 15 9 0 13 -66 61
-74 54 -3 -4 -6 -1 -6 5 0 7 -9 12 -19 12 -11 0 -23 5 -27 12 -4 7 -3 8 4 4
24 -14 11 15 -15 37 -15 12 -47 40 -72 63 -26 23 -52 39 -58 37 -7 -3 -13 0
-13 7 0 6 6 8 13 4 6 -4 -15 20 -48 55 -33 34 -61 66 -63 71 -2 6 -8 10 -13
10 -5 0 -18 9 -29 20 -12 12 -25 18 -30 15 -6 -4 -10 -2 -10 4 0 6 -7 8 -15 5
-8 -4 -22 -1 -30 6 -8 6 -20 8 -26 4 -7 -4 -9 -3 -6 3 8 13 -8 27 -54 46 -36
15 -36 15 -36 -9 0 -13 6 -29 13 -35 8 -6 14 -16 14 -22 0 -6 8 -20 19 -31 10
-12 27 -34 37 -51 l18 -30 -26 24 c-16 13 -32 20 -39 16 -7 -5 -24 7 -45 31
-37 42 -40 49 -22 60 7 4 8 3 4 -5 -4 -6 0 -14 9 -17 32 -13 27 7 -14 52 -42
44 -50 71 -14 43 15 -12 15 -10 -1 9 -13 15 -23 19 -31 12 -13 -11 -25 -4 -21
13 2 7 1 8 -2 4 -2 -5 -13 0 -24 9 -15 15 -21 16 -27 5 -5 -8 -14 -10 -20 -7
-17 11 -13 27 5 24 10 -2 19 3 21 10 3 6 -2 12 -11 12 -9 0 -16 7 -16 16 0 8
-4 13 -8 10 -5 -3 -19 6 -30 19 -33 38 -50 29 -43 -24 2 -7 -3 -10 -9 -6 -6 4
-9 14 -6 22 3 8 -1 21 -9 29 -15 16 -19 12 -16 -18 3 -26 -6 -22 -22 12 -14
27 -14 30 9 45 14 9 22 20 18 26 -3 6 3 13 15 16 29 7 26 27 -6 48 -23 16 -25
16 -20 1 4 -9 3 -16 -1 -16 -9 0 -37 42 -34 52 1 4 -3 20 -9 35 -8 21 -12 24
-19 13 -6 -9 -5 -17 3 -23 8 -5 5 -7 -8 -5 -23 3 -47 31 -43 49 2 6 -9 15 -24
19 -20 6 -25 5 -21 -6z"/>
<path d="M600 1783 c-7 -21 -18 -41 -25 -45 -7 -4 -12 -22 -13 -39 0 -18 -8
-36 -16 -41 -9 -5 -16 -14 -16 -19 0 -6 4 -8 9 -4 18 10 24 -18 7 -31 -16 -11
-16 -13 1 -22 10 -6 15 -14 11 -18 -4 -4 -14 -1 -23 6 -13 11 -14 10 -9 -5 6
-14 4 -16 -6 -10 -8 5 -4 -5 8 -22 20 -28 20 -31 4 -48 -9 -10 -11 -15 -4 -11
14 9 17 -10 2 -19 -6 -4 -1 -15 12 -26 13 -12 16 -18 8 -14 -8 4 -6 -1 5 -10
19 -15 20 -14 28 40 5 38 5 61 -3 70 -8 9 -8 14 1 17 6 2 13 38 16 88 2 47 8
110 13 140 10 67 6 74 -10 23z"/>
<path d="M4810 1790 c18 -16 39 -30 45 -30 14 0 58 -34 108 -82 21 -21 43 -38
48 -38 6 0 8 -7 5 -16 -5 -12 -2 -15 9 -10 9 3 14 2 11 -3 -3 -5 1 -14 9 -21
8 -7 15 -16 15 -21 0 -12 111 -114 121 -112 5 2 7 -3 4 -10 -3 -12 173 -179
197 -185 7 -3 -25 32 -72 77 -46 44 -81 83 -77 87 4 4 7 2 7 -5 0 -7 5 -9 12
-5 7 5 5 11 -7 21 -23 16 -39 17 -29 1 4 -7 3 -8 -5 -4 -6 4 -9 11 -6 16 3 5
1 11 -5 15 -5 3 -10 11 -10 17 0 6 10 2 23 -10 13 -12 28 -22 34 -22 6 0 13
-7 17 -15 3 -8 10 -15 15 -15 6 0 41 -32 78 -71 72 -74 103 -98 103 -78 0 6
-9 13 -20 16 -11 3 -20 11 -20 19 0 7 -20 35 -45 61 -46 50 -62 81 -23 47 12
-10 7 0 -12 24 -36 45 -43 51 -34 27 15 -38 -34 5 -106 94 -14 17 -29 31 -34
31 -5 0 3 -13 19 -30 26 -27 26 -35 1 -31 -5 1 -6 -5 -3 -14 5 -10 0 -15 -13
-15 -11 0 -20 5 -20 10 0 6 -7 10 -15 10 -16 0 -21 15 -7 23 4 2 2 3 -3 2 -6
-2 -17 4 -24 13 -13 13 -11 14 15 8 l29 -6 -25 15 c-14 8 -19 14 -12 15 7 0
11 4 7 10 -3 5 -12 7 -21 3 -12 -4 -54 29 -54 43 0 9 29 -10 34 -22 9 -23 28
-17 21 7 -4 12 -8 29 -9 37 -2 9 -9 18 -16 20 -9 3 -10 0 -4 -9 7 -12 5 -12
-9 -1 -9 8 -19 22 -22 33 -4 10 -13 19 -21 19 -13 0 -12 -6 6 -34 29 -47 12
-52 -30 -9 -19 20 -50 47 -67 60 -18 14 -33 32 -33 40 0 10 -6 13 -16 9 -8 -3
-31 1 -51 9 -50 21 -51 19 -13 -15z"/>
<path d="M3755 1685 c-35 -9 -54 -10 -62 -3 -8 7 -13 7 -13 1 0 -6 -11 -9 -25
-8 -13 2 -30 -4 -37 -13 -11 -14 -10 -15 7 -9 18 6 18 6 3 -5 -9 -7 -30 -21
-47 -30 -17 -9 -31 -22 -31 -29 0 -8 7 -6 18 5 24 21 84 12 75 -11 -5 -12 -1
-11 15 3 12 9 19 21 17 25 -3 4 2 9 10 12 9 4 12 1 8 -9 -3 -10 2 -14 19 -14
13 0 34 -9 46 -20 18 -17 21 -29 18 -68 -2 -26 -4 -48 -5 -50 -1 -1 -11 2 -22
9 -16 8 -20 8 -14 0 5 -8 -2 -10 -22 -6 -24 5 -25 4 -10 -5 10 -6 36 -13 58
-15 33 -4 39 -2 30 8 -7 10 -6 19 4 34 8 11 17 47 20 79 3 45 3 51 -4 26 -13
-51 -19 -48 -23 11 -2 34 1 53 7 51 6 -2 11 7 11 21 1 14 1 25 0 24 0 0 -23
-6 -51 -14z"/>
<path d="M4643 1685 c-3 -9 -3 -19 1 -22 3 -4 6 1 6 10 0 10 5 14 14 11 8 -3
12 -12 9 -20 -4 -10 0 -12 11 -8 9 3 23 1 31 -6 8 -7 24 -10 35 -7 15 4 20 0
20 -14 0 -10 9 -23 20 -29 11 -6 20 -17 20 -25 0 -8 8 -18 18 -24 16 -9 16
-10 -2 -17 -10 -4 -21 -3 -25 2 -16 22 -36 10 -38 -23 -1 -22 2 -31 9 -27 7 4
8 2 4 -4 -4 -6 0 -24 8 -39 19 -37 203 -213 221 -213 8 0 15 -4 15 -9 0 -5 9
-13 20 -16 11 -4 18 -10 15 -15 -4 -7 26 -19 47 -20 4 0 -19 25 -50 57 -62 61
-65 63 101 -69 39 -31 76 -54 82 -50 5 3 21 6 35 7 14 0 23 5 20 10 -2 6 -10
9 -16 7 -7 -1 -15 2 -19 8 -3 5 -1 10 6 10 22 0 -11 28 -42 35 -16 4 -32 11
-35 17 -5 7 -2 8 7 3 8 -4 -4 10 -26 32 -22 21 -44 37 -48 35 -14 -7 -38 21
-32 37 3 8 3 12 -1 9 -3 -4 -12 -2 -19 5 -7 7 -29 25 -49 41 -29 24 -33 32
-25 47 7 13 6 19 -1 19 -6 0 -18 13 -28 29 -9 15 -21 29 -27 30 -16 4 -18 10
-3 7 33 -6 58 -18 53 -26 -7 -11 31 -51 39 -43 3 4 6 1 6 -6 0 -16 61 -71 79
-71 8 0 11 -3 8 -7 -9 -9 33 -53 50 -53 8 0 11 5 7 12 -4 6 -3 8 4 5 5 -4 8
-17 5 -28 -5 -18 -3 -20 15 -15 22 7 39 -8 22 -19 -11 -7 44 -65 61 -65 5 0 9
-4 9 -10 0 -5 6 -9 13 -7 6 1 11 -4 9 -11 -1 -8 2 -11 9 -6 7 4 17 1 23 -7 10
-13 67 -35 119 -45 10 -2 25 -8 33 -15 7 -6 37 -13 66 -15 l52 -4 -75 50 c-41
28 -123 82 -183 121 -79 53 -139 103 -225 190 -64 65 -119 119 -123 119 -9 0
-4 -21 11 -48 11 -21 11 -23 -6 -14 -10 6 -35 27 -56 46 -20 20 -47 37 -60 38
-12 1 -29 2 -37 4 -8 1 -21 2 -27 3 -7 1 -13 5 -13 10 0 5 9 7 20 4 12 -3 20
0 20 6 0 7 -4 9 -10 6 -5 -3 -10 -2 -10 3 0 14 -86 72 -107 72 -11 0 -28 7
-39 15 -25 19 -43 19 -51 0z"/>
<path d="M2100 1628 c-11 -18 -20 -36 -20 -40 0 -5 -4 -8 -10 -8 -5 0 -10 7
-10 15 0 20 -26 19 -34 -1 -8 -21 2 -37 20 -30 19 7 45 -4 38 -16 -4 -6 -10
-5 -15 3 -6 10 -9 8 -9 -8 0 -13 -4 -23 -10 -23 -13 0 -13 -47 -1 -54 5 -4 12
0 14 6 3 7 5 1 4 -14 -1 -15 -5 -24 -9 -22 -4 3 -8 -6 -8 -19 0 -14 -6 -27
-13 -30 -17 -6 -60 -77 -48 -77 5 0 12 7 15 16 3 8 10 12 16 9 6 -3 7 1 4 9
-3 9 -1 16 6 16 6 0 9 4 6 8 -3 5 6 15 19 22 13 7 22 16 20 20 -3 5 2 11 11
14 8 3 12 11 9 17 -4 6 2 19 14 30 16 16 25 17 41 9 11 -6 17 -16 14 -25 -4
-8 -10 -13 -14 -10 -4 2 -15 -4 -24 -14 -21 -23 -6 -36 32 -26 19 5 22 9 13
15 -14 8 -7 30 10 30 6 0 7 -4 4 -10 -10 -16 1 -11 16 7 12 14 12 16 0 8 -11
-6 -13 -4 -8 8 4 12 2 14 -10 10 -12 -5 -14 -3 -8 7 5 9 4 11 -3 6 -7 -4 -12
-2 -12 4 0 6 -3 9 -8 6 -14 -9 -41 19 -32 34 7 12 10 11 16 -3 6 -17 8 -16 23
6 9 13 24 23 34 21 9 -1 17 2 17 8 0 6 -8 7 -17 4 -15 -6 -15 -5 -1 11 31 37
30 47 -2 16 -32 -31 -66 -37 -35 -7 8 9 12 20 9 26 -3 5 -22 -19 -41 -54 -39
-70 -41 -73 -47 -67 -3 2 6 27 20 54 13 28 22 55 20 60 -5 14 20 36 30 27 5
-4 2 1 -5 11 -18 22 -18 22 -41 -15z"/>
<path d="M3137 1542 c5 -14 3 -15 -8 -4 -18 17 -49 15 -49 -3 0 -8 9 -15 20
-15 12 0 20 -7 20 -16 0 -11 6 -14 18 -10 9 3 0 -8 -20 -25 -21 -17 -36 -34
-33 -39 3 -4 -3 -7 -12 -6 -9 0 -18 -5 -21 -13 -3 -10 0 -11 9 -5 11 6 10 3
-1 -11 -15 -18 -15 -18 -19 0 -2 11 6 27 18 36 20 16 30 36 13 25 -4 -2 -14 0
-22 6 -13 8 -12 9 2 5 9 -4 19 1 22 10 8 19 -2 32 -12 17 -10 -16 -54 -38 -77
-39 -11 -1 -31 6 -45 15 -23 14 -24 14 -17 -4 7 -17 6 -17 -10 -5 -15 12 -16
12 -10 -3 5 -15 1 -18 -29 -18 -25 0 -33 -3 -28 -12 6 -10 4 -10 -8 0 -11 9
-18 10 -23 2 -3 -6 -10 -8 -15 -5 -4 3 -14 -3 -21 -12 -10 -12 -10 -14 -1 -9
13 8 17 -6 5 -18 -5 -4 -8 -12 -8 -18 0 -6 -18 -17 -40 -25 -45 -16 -70 -35
-37 -28 12 2 24 0 27 -6 4 -5 -3 -9 -15 -9 -12 0 -18 -5 -15 -10 4 -6 11 -8
16 -5 5 3 6 -1 3 -9 -3 -9 -10 -14 -14 -11 -4 3 -10 -2 -14 -10 -7 -20 9 -19
29 2 14 13 21 14 35 5 14 -9 19 -8 24 4 3 9 11 12 17 8 8 -4 9 -3 5 5 -6 9
-11 9 -22 0 -11 -9 -14 -9 -14 1 0 6 8 14 19 17 10 2 24 16 30 29 11 24 43 34
38 12 -1 -7 4 -13 11 -14 6 -1 17 -2 23 -3 5 0 7 -5 4 -11 -3 -5 0 -8 7 -5 7
2 30 6 50 8 28 4 35 1 31 -9 -5 -13 -16 -18 -34 -16 -4 1 -15 -8 -25 -20 -12
-14 -14 -18 -4 -13 13 8 13 7 0 -9 -8 -11 -16 -14 -18 -7 -5 14 -42 15 -42 0
0 -5 5 -7 12 -3 7 4 8 3 4 -5 -4 -6 -11 -9 -16 -6 -5 3 -12 -1 -17 -8 -12 -21
-57 -28 -79 -13 -11 8 -31 16 -44 17 -14 2 -33 13 -42 24 -16 19 -19 18 -22
-5 0 -5 -5 -10 -11 -11 -5 0 -13 -9 -17 -20 -4 -11 -12 -18 -17 -15 -5 3 -16
-5 -25 -19 -9 -14 -13 -25 -9 -25 4 0 -2 -7 -13 -15 -18 -14 -18 -14 8 -15 15
0 30 -5 33 -10 4 -7 12 -7 24 0 10 5 22 6 26 2 5 -4 4 0 0 8 -7 12 -6 13 6 4
8 -7 26 -11 42 -9 18 2 27 -1 27 -11 0 -8 -7 -14 -16 -14 -8 0 -13 -4 -10 -9
6 -10 -18 -34 -26 -26 -3 3 -11 -3 -19 -12 -13 -16 -12 -17 4 -4 9 7 17 9 17
4 0 -11 -52 -63 -63 -63 -4 0 -16 -9 -27 -20 -13 -13 -16 -21 -8 -26 7 -5 29
12 53 39 39 45 61 54 48 20 -5 -13 -3 -13 16 -2 25 16 27 29 6 29 -27 0 -17
21 24 55 l25 20 -23 -32 c-21 -30 -20 -38 2 -34 5 1 5 -4 1 -11 -11 -18 24 10
53 42 12 14 23 31 23 37 0 7 11 15 25 19 29 7 138 121 129 135 -7 12 55 71 67
63 5 -3 9 -1 9 4 0 5 10 21 23 35 12 14 30 37 40 52 10 14 23 22 29 19 7 -5 9
0 6 14 -4 12 -2 20 3 16 5 -3 9 0 9 6 0 6 6 10 13 9 6 -1 19 -1 27 0 13 1 13
2 0 11 -13 9 -13 11 0 20 8 5 20 8 26 6 7 -3 10 3 7 14 -5 18 -33 17 -33 -1 0
-5 -4 -9 -10 -9 -5 0 -10 9 -10 19 0 10 -7 21 -14 24 -11 4 -13 1 -9 -11z"/>
<path d="M9301 828 c6 -13 21 -31 33 -40 17 -13 18 -18 6 -21 -46 -15 -52 -18
-46 -24 4 -4 32 -7 64 -7 l57 -1 -2 -44 c-2 -25 -9 -48 -15 -53 -7 -4 -8 -8
-3 -8 6 0 2 -5 -7 -10 -11 -7 -15 -21 -14 -45 3 -37 16 -62 16 -31 0 9 4 15 9
11 5 -3 13 5 18 17 8 24 9 33 12 86 0 18 6 32 14 32 7 0 18 14 24 31 11 27 10
31 -11 41 -17 7 -22 16 -18 30 3 14 -2 21 -18 25 -17 4 -19 8 -8 15 10 8 10 9
-2 5 -9 -2 -14 -14 -12 -27 1 -16 -2 -21 -13 -16 -8 3 -15 0 -15 -6 0 -7 -5
-6 -15 2 -8 7 -15 18 -15 26 0 12 -29 34 -45 34 -3 0 -1 -10 6 -22z"/>
<path d="M4230 814 c-16 -40 -12 -62 13 -75 12 -7 24 -15 27 -18 3 -4 20 -17
38 -30 18 -12 32 -31 32 -42 0 -11 5 -17 10 -14 6 4 7 12 3 18 -3 7 2 5 13 -4
10 -9 29 -20 42 -24 13 -4 35 -19 50 -33 24 -23 38 -28 97 -30 l70 -4 -25 20
c-14 11 -35 22 -47 26 -11 4 -27 13 -33 21 -7 8 -20 15 -30 15 -10 0 -30 7
-46 14 -15 8 -31 13 -36 10 -4 -3 -8 0 -8 6 0 7 7 9 15 6 13 -5 12 -1 -2 19
-10 13 -24 25 -30 25 -7 0 -13 5 -13 10 0 6 13 8 29 5 46 -8 47 19 0 40 -21
10 -39 21 -39 25 0 7 -15 12 -78 26 -8 1 -11 -3 -8 -11 3 -9 0 -12 -9 -9 -8 3
-11 12 -8 20 3 8 0 14 -6 14 -6 0 -16 -12 -21 -26z"/>
<path d="M4034 698 c4 -21 0 -32 -21 -48 -14 -11 -20 -20 -14 -20 7 0 9 -4 6
-10 -10 -17 23 -53 51 -56 37 -4 106 32 102 54 -2 9 -12 19 -23 22 -13 3 -21
15 -23 35 -4 38 -21 48 -47 27 -11 -9 -14 -10 -7 -2 17 20 15 26 -9 26 -17 0
-20 -5 -15 -28z"/>
<path d="M3785 670 c-11 -4 -31 -19 -44 -34 -13 -14 -27 -23 -32 -21 -10 7
-110 -45 -105 -54 6 -8 101 -6 129 3 41 14 46 14 49 4 3 -8 10 -8 25 1 14 7
24 8 28 1 10 -16 61 -12 76 7 13 15 11 16 -16 8 -44 -11 -50 -11 -52 0 -1 6 6
9 16 7 9 -1 26 7 36 18 23 26 15 36 -11 12 -11 -10 -25 -17 -32 -14 -7 2 -24
-4 -39 -13 -23 -16 -25 -16 -20 -1 4 9 10 23 14 33 4 11 3 14 -5 9 -7 -4 -12
-2 -12 3 0 14 13 14 28 -1 6 -6 15 -9 19 -5 13 13 -32 44 -52 37z"/>
<path d="M3587 525 c-9 -7 -17 -16 -17 -20 0 -16 -53 -56 -67 -51 -20 8 -52
-15 -45 -33 3 -9 2 -13 -3 -9 -10 9 -47 -10 -40 -21 2 -5 -3 -8 -13 -7 -12 1
-17 -6 -16 -22 0 -12 -4 -21 -10 -20 -17 3 -56 -12 -56 -23 0 -5 -9 -9 -19 -9
-10 0 -21 -7 -25 -15 -3 -9 -12 -12 -22 -8 -10 4 -15 2 -11 -3 9 -15 121 -11
140 4 12 10 16 10 19 0 3 -9 30 -13 89 -15 46 0 98 -4 114 -7 23 -5 27 -4 15
4 -11 8 -2 9 35 5 28 -4 77 -6 110 -4 116 4 450 1 473 -4 14 -4 20 -2 16 4 -4
7 6 10 27 8 43 -3 117 10 125 22 3 5 -6 13 -20 19 -27 10 -33 24 -16 35 6 4 7
-1 3 -11 -4 -12 -3 -15 5 -10 6 4 19 -2 28 -13 9 -10 23 -17 30 -14 8 3 22 2
32 -3 9 -4 21 -8 25 -8 4 -1 12 -8 17 -16 8 -12 10 -12 10 5 0 15 2 17 9 6 7
-10 46 -14 170 -15 111 -2 158 1 151 8 -16 16 -12 26 10 26 13 0 18 -5 14 -15
-5 -12 2 -15 32 -16 22 0 48 -3 59 -6 11 -2 65 -4 120 -3 55 0 156 1 225 2 92
1 119 4 102 11 -12 6 -22 15 -22 21 0 6 -13 18 -29 27 -23 14 -27 21 -23 47 4
27 2 30 -18 25 -12 -3 -27 -18 -33 -32 -6 -14 -14 -28 -18 -31 -3 -3 -9 -14
-12 -24 -11 -29 -20 -12 -12 23 4 17 13 31 21 31 8 0 14 5 14 10 0 15 -17 12
-45 -6 -13 -9 -30 -12 -36 -8 -8 4 -9 3 -5 -4 7 -11 -33 -19 -59 -12 -5 2 -21
4 -35 6 -14 1 -25 3 -25 4 0 1 -13 3 -30 5 -17 2 -40 16 -53 31 l-24 27 -87
-21 c-81 -20 -95 -20 -162 -9 -41 8 -84 19 -96 26 -13 6 -23 9 -23 5 0 -3 -6
-2 -12 3 -7 6 -28 15 -47 22 -29 9 -36 8 -48 -7 -8 -9 -12 -12 -8 -5 4 8 -3 8
-22 -2 -15 -8 -33 -15 -39 -15 -17 0 -84 -61 -84 -76 0 -8 -5 -14 -11 -14 -5
0 -8 4 -4 9 3 6 -5 8 -17 6 -13 -2 -41 -6 -63 -9 l-40 -5 43 21 c23 12 42 26
42 31 0 4 -4 6 -8 3 -5 -3 -9 1 -9 9 0 14 8 18 25 13 4 -2 6 -7 4 -13 -1 -5 5
-1 13 9 8 11 15 25 15 32 0 7 6 15 13 17 6 3 1 6 -13 6 -14 1 -34 4 -45 7 -12
3 -29 -3 -42 -15 -12 -12 -31 -21 -43 -21 -12 0 -24 -9 -30 -24 -5 -13 -14
-27 -21 -32 -8 -4 -10 -3 -5 4 4 7 -15 -2 -42 -19 -44 -27 -53 -29 -91 -20
-34 7 -40 7 -31 -4 8 -9 5 -14 -10 -18 -21 -5 -42 14 -22 21 7 2 12 8 12 13 0
11 -32 -1 -42 -15 -5 -7 -8 -7 -8 2 0 10 -5 10 -22 -2 -12 -9 -34 -16 -48 -15
l-25 1 25 8 c14 4 22 9 18 10 -16 5 -28 8 -40 9 -10 1 -9 4 1 10 9 6 21 5 31
-1 13 -8 31 -5 75 16 32 14 55 29 52 32 -3 3 -14 1 -25 -5 -26 -14 -32 -14
-32 -1 0 6 8 10 18 10 14 0 15 2 2 10 -17 10 -81 5 -89 -8 -3 -5 -22 -17 -41
-28 -19 -10 -37 -22 -40 -26 -3 -4 -12 -3 -20 2 -13 8 -12 10 3 10 9 0 17 4
17 8 0 5 17 17 38 27 l37 20 -37 3 c-21 2 -38 8 -38 13 0 6 -4 8 -10 4 -5 -3
-25 -6 -45 -7 -20 -1 -39 -7 -42 -15 -3 -7 -9 -11 -13 -8 -5 3 -15 2 -24 -1
-14 -5 -14 -9 -4 -23 11 -14 11 -14 -4 -3 -18 14 -47 5 -76 -25 -7 -7 -20 -13
-28 -13 -8 0 -14 -4 -14 -9 0 -5 -14 -11 -31 -15 -31 -6 -58 12 -58 39 0 6 6
1 14 -9 14 -18 20 -15 16 7 -1 5 3 6 9 2 5 -3 10 -1 10 5 0 6 5 8 10 5 6 -3
13 0 16 8 3 8 21 23 40 33 19 10 32 24 30 30 -3 7 3 10 15 7 10 -3 19 0 19 6
0 6 -6 11 -12 12 -7 0 1 5 19 10 24 7 30 13 26 28 -7 26 -25 32 -46 16z"/>
</g>
</svg>
