<?xml version="1.0" standalone="no"?>
<!DOCTYPE svg PUBLIC "-//W3C//DTD SVG 20010904//EN"
 "http://www.w3.org/TR/2001/REC-SVG-20010904/DTD/svg10.dtd">
<svg version="1.0" xmlns="http://www.w3.org/2000/svg"
 width="260.000000pt" height="260.000000pt" viewBox="0 0 260.000000 260.000000"
 preserveAspectRatio="xMidYMid meet">
<metadata>
Created by potrace 1.14, written by Peter Selinger 2001-2017
</metadata>
<g transform="translate(0.000000,260.000000) scale(0.100000,-0.100000)"
fill="#000000" stroke="none">
<path d="M1733 2528 c-43 -39 -100 -103 -126 -142 -27 -39 -50 -72 -51 -73 -1
-1 -58 -5 -127 -7 -94 -4 -141 -10 -196 -29 -40 -13 -73 -21 -73 -18 0 4 19
30 43 58 46 57 103 153 90 153 -4 0 -33 -30 -63 -66 -86 -103 -207 -196 -407
-314 l-118 -69 -30 28 c-82 76 -322 210 -458 255 -39 14 -98 34 -129 45 -83
30 -88 29 -88 -23 l0 -44 83 -42 c45 -23 102 -58 127 -77 158 -120 353 -360
343 -419 -9 -47 -50 -84 -96 -84 -32 0 -46 7 -80 40 l-41 41 -14 -27 c-21 -39
-8 -87 34 -123 19 -17 39 -31 45 -31 5 0 -7 -15 -27 -32 -44 -39 -64 -82 -64
-139 l0 -41 35 31 c45 39 52 39 23 1 -12 -16 -25 -30 -30 -30 -4 0 -8 -6 -8
-14 0 -8 -9 -31 -20 -53 -10 -21 -24 -57 -30 -80 -7 -26 -17 -43 -25 -43 -8 0
-15 4 -15 8 0 5 -17 16 -37 25 -54 24 -103 71 -156 152 -43 64 -47 67 -47 40
0 -54 115 -178 218 -235 30 -17 41 -29 36 -40 -40 -102 -52 -380 -20 -487 10
-35 22 -63 27 -63 5 0 17 17 28 37 10 21 29 47 42 58 l22 20 -7 -20 c-4 -11
-10 -40 -13 -65 l-5 -45 113 0 c196 0 244 -15 506 -163 40 -22 88 -45 107 -52
51 -16 60 -32 53 -93 -8 -75 -36 -140 -56 -131 -81 35 -199 43 -269 19 -36
-13 -165 -89 -196 -117 -6 -4 380 -8 857 -8 l867 0 -30 43 c-17 23 -70 81
-117 130 -72 73 -95 90 -138 102 -81 24 -151 21 -222 -9 -35 -14 -66 -26 -71
-26 -13 0 -32 47 -32 78 0 23 10 32 68 64 62 34 127 83 212 161 19 18 50 43
68 57 19 14 46 34 60 45 85 65 232 139 300 150 23 4 42 9 42 12 0 3 -13 28
-30 54 -16 27 -27 49 -24 49 3 0 19 -7 35 -16 48 -24 63 -13 55 43 -3 26 -13
57 -21 69 -8 13 -15 26 -15 30 0 3 34 3 75 -1 47 -5 75 -4 75 3 0 11 -56 22
-117 22 -41 0 -83 27 -83 54 0 6 -21 33 -46 60 -36 39 -43 51 -31 57 13 8 202
29 255 29 13 0 22 6 22 15 0 12 -16 14 -97 9 -54 -3 -114 -10 -133 -15 -59
-15 -93 -10 -126 19 -25 22 -32 37 -38 82 -14 114 -39 218 -74 305 -76 192
-153 287 -308 385 -31 20 -32 44 -1 35 12 -4 39 -15 60 -26 47 -24 50 -24 37
1 -6 12 -34 35 -61 52 -37 22 -49 35 -44 47 4 9 9 39 12 66 10 92 69 265 108
315 35 44 29 50 -50 50 l-75 0 -77 -72z m-205 -290 c-3 -7 -10 -13 -16 -12 -7
1 -31 2 -54 4 l-43 3 45 7 c70 11 72 11 68 -2z m442 -698 c0 -5 -9 -10 -21
-10 -27 0 -53 -61 -45 -105 6 -31 41 -74 55 -66 3 2 11 11 18 20 11 14 12 14
13 1 0 -9 -6 -22 -12 -28 -10 -10 -10 -15 0 -21 10 -6 12 -23 7 -67 -11 -93
-11 -94 -47 -82 -16 6 -55 16 -86 22 l-56 11 -13 50 c-7 28 -13 75 -13 106 0
48 5 62 30 94 32 40 68 70 75 63 3 -2 0 -20 -5 -39 -15 -50 5 -135 38 -166 27
-25 52 -27 60 -5 3 9 -3 11 -21 7 -20 -5 -29 -1 -40 17 -34 52 -31 147 6 196
11 14 57 16 57 2z m-682 -91 c41 -17 42 -19 42 -64 0 -47 20 -107 39 -120 6
-3 3 11 -8 32 -24 48 -27 128 -5 119 9 -3 19 -6 22 -6 4 0 7 -15 8 -33 1 -79
32 -119 74 -97 15 8 20 8 20 -3 0 -19 -21 -37 -42 -37 -10 0 -18 -4 -18 -10 0
-15 36 -12 50 5 20 24 30 18 30 -17 0 -44 -5 -49 -80 -89 -55 -29 -72 -34
-120 -31 -67 5 -77 12 -107 81 -28 62 -39 161 -29 245 l8 57 36 -7 c20 -3 56
-15 80 -25z m357 -47 c17 4 26 -3 40 -29 10 -18 21 -33 25 -33 4 0 14 15 21
33 l14 32 6 -71 c4 -39 10 -80 13 -91 6 -18 1 -21 -66 -27 -104 -9 -136 -14
-159 -27 -19 -10 -20 -8 -18 18 1 15 -1 51 -5 79 -7 51 -7 53 31 92 31 33 41
38 57 30 10 -5 28 -8 41 -6z m182 -226 c11 -11 -11 -26 -38 -26 -35 0 -69 16
-69 32 0 10 96 5 107 -6z m105 -7 c11 -6 17 -17 14 -25 -4 -9 1 -14 14 -14 12
0 28 -13 40 -32 24 -40 25 -48 5 -48 -8 0 -15 -5 -15 -11 0 -7 11 -9 26 -6 24
4 29 -1 60 -66 19 -39 34 -87 34 -106 0 -56 -67 -178 -136 -248 -34 -35 -64
-63 -68 -63 -3 0 -34 -19 -69 -43 -114 -80 -199 -92 -357 -51 -149 38 -253
105 -347 223 -77 95 -79 91 77 159 54 23 83 50 101 92 15 32 55 50 112 50 15
0 27 4 27 8 0 4 -28 5 -62 2 -41 -4 -66 -3 -70 4 -15 22 -7 45 22 66 27 19 35
20 87 11 69 -13 66 -13 58 -1 -3 6 -16 10 -28 10 -51 1 -49 17 5 47 68 39 118
51 118 29 0 -8 13 -22 30 -31 16 -8 46 -27 67 -41 52 -35 96 -28 141 23 18 20
35 47 38 59 5 18 11 21 31 18 15 -3 35 -10 45 -15z m-615 -106 c-16 -16 -18
-16 -34 0 -16 16 -15 17 17 17 32 0 33 -1 17 -17z"/>
<path d="M1690 818 c-48 -31 -59 -46 -41 -57 20 -13 70 -1 64 15 -3 8 2 26 12
40 9 14 15 27 13 28 -2 2 -23 -10 -48 -26z"/>
<path d="M1760 682 c0 -10 -39 -32 -63 -36 -23 -3 -34 -16 -14 -16 23 0 66 18
83 34 16 17 18 26 4 26 -5 0 -10 -4 -10 -8z"/>
</g>
</svg>
